<?xml version="1.0" encoding="utf-8"?>
<!-- Generator: Adobe Illustrator 16.0.0, SVG Export Plug-In . SVG Version: 6.00 Build 0)  -->
<!DOCTYPE svg PUBLIC "-//W3C//DTD SVG 1.1//EN" "http://www.w3.org/Graphics/SVG/1.1/DTD/svg11.dtd" [
	<!ENTITY ns_extend "http://ns.adobe.com/Extensibility/1.0/">
	<!ENTITY ns_ai "http://ns.adobe.com/AdobeIllustrator/10.0/">
	<!ENTITY ns_graphs "http://ns.adobe.com/Graphs/1.0/">
	<!ENTITY ns_vars "http://ns.adobe.com/Variables/1.0/">
	<!ENTITY ns_imrep "http://ns.adobe.com/ImageReplacement/1.0/">
	<!ENTITY ns_sfw "http://ns.adobe.com/SaveForWeb/1.0/">
	<!ENTITY ns_custom "http://ns.adobe.com/GenericCustomNamespace/1.0/">
	<!ENTITY ns_adobe_xpath "http://ns.adobe.com/XPath/1.0/">
]>
<svg version="1.1" id="Layer_1" xmlns:x="&ns_extend;" xmlns:i="&ns_ai;" xmlns:graph="&ns_graphs;"
	 xmlns="http://www.w3.org/2000/svg" xmlns:xlink="http://www.w3.org/1999/xlink" x="0px" y="0px" width="612px" height="199.809px"
	 viewBox="0 0 612 500" enable-background="new 0 0 0 0" xml:space="preserve">
<metadata>
	<sfw  xmlns="&ns_sfw;">
		<slices></slices>
		<sliceSourceBounds  width="594.593" height="199.809" x="9.01" y="442.125" bottomLeftOrigin="true"></sliceSourceBounds>
	</sfw>
</metadata>
<g>
	<path fill="#CA982B" d="M273.744,193.342c0.478-0.056,0.922-0.172,1.345-0.315c0.616,0.772,1.375,1.433,2.242,1.945
		c-0.244,0.315-0.474,0.654-0.667,1.033c-1.168,2.304-0.822,4.826,0.773,5.634c1.593,0.808,3.833-0.403,5.002-2.706
		c0.497-0.981,0.704-1.996,0.672-2.907c0.999-0.168,1.933-0.509,2.773-0.988c0.397,0.829,1.058,1.637,1.966,2.278
		c2.108,1.489,4.655,1.513,5.686,0.052c1.03-1.459,0.156-3.852-1.953-5.339c-0.706-0.5-1.458-0.819-2.189-0.988
		c0.346-0.872,0.543-1.812,0.543-2.799c0-0.126-0.014-0.249-0.019-0.373c0.745-0.124,1.521-0.4,2.261-0.858
		c2.195-1.361,3.209-3.696,2.267-5.215c-0.942-1.519-3.485-1.646-5.68-0.285c-0.508,0.315-0.943,0.685-1.315,1.082
		c-0.509-0.475-1.082-0.886-1.704-1.225c0.427-0.315,0.835-0.689,1.201-1.141c1.623-2.008,1.812-4.548,0.42-5.671
		c-1.39-1.124-3.833-0.407-5.456,1.601c-1.111,1.375-1.532,2.991-1.251,4.239c-0.815,0.094-1.592,0.299-2.316,0.603
		c-0.167-1.096-0.804-2.283-1.871-3.242c-1.92-1.726-4.445-2.047-5.641-0.718c-1.195,1.329-0.607,3.807,1.313,5.533
		c0.799,0.718,1.7,1.177,2.568,1.392c-0.589,0.873-1,1.863-1.192,2.926c-0.175,0.007-0.347,0.004-0.525,0.025
		c-2.564,0.296-4.478,1.977-4.271,3.753C268.933,192.44,271.179,193.639,273.744,193.342z M281.667,181.278
		c4.02,0,7.279,3.119,7.279,6.962c0,3.846-3.259,6.962-7.279,6.962c-4.021,0-7.279-3.116-7.279-6.962
		C274.388,184.397,277.646,181.278,281.667,181.278z"/>
	<ellipse fill="#5281A5" cx="281.667" cy="188.241" rx="5.766" ry="5.514"/>
	<path fill="#CA982B" d="M247.97,284.963c0.502,0.112,1.063,0.137,1.648,0.037c1.734-0.298,2.973-1.515,2.766-2.715
		c-0.207-1.2-1.78-1.932-3.514-1.633c-0.401,0.069-0.772,0.191-1.108,0.347c-0.199-0.43-0.456-0.837-0.762-1.209
		c0.35-0.09,0.704-0.222,1.05-0.414c1.539-0.853,2.308-2.408,1.717-3.475c-0.591-1.064-2.318-1.236-3.856-0.384
		c-1.054,0.584-1.732,1.497-1.875,2.357c-0.539-0.148-1.083-0.218-1.618-0.21c0.175-0.737,0.077-1.649-0.353-2.527
		c-0.771-1.581-2.284-2.431-3.379-1.896c-1.095,0.535-1.357,2.25-0.585,3.832c0.32,0.657,0.771,1.178,1.266,1.536
		c-0.595,0.401-1.108,0.921-1.501,1.543c-0.112-0.04-0.22-0.086-0.337-0.119c-1.696-0.468-3.334,0.104-3.658,1.278
		c-0.325,1.173,0.787,2.506,2.483,2.974c0.317,0.087,0.627,0.127,0.931,0.145c0.191,0.646,0.502,1.256,0.919,1.802
		c-0.236,0.137-0.467,0.292-0.685,0.482c-1.328,1.156-1.754,2.838-0.954,3.757c0.8,0.918,2.523,0.726,3.851-0.43
		c0.566-0.493,0.956-1.081,1.169-1.665c0.675,0.149,1.351,0.173,2.004,0.086c0.039,0.625,0.25,1.304,0.66,1.942
		c0.951,1.479,2.554,2.146,3.577,1.487c1.026-0.659,1.085-2.393,0.135-3.872c-0.318-0.496-0.713-0.891-1.13-1.184
		c0.44-0.461,0.806-1.006,1.058-1.628C247.919,285.125,247.942,285.043,247.97,284.963z M247.261,284.95
		c-0.984,2.43-3.84,3.564-6.38,2.536c-2.539-1.029-3.8-3.832-2.816-6.259c0.984-2.43,3.839-3.564,6.379-2.536
		C246.983,279.718,248.244,282.521,247.261,284.95z"/>
	
		<ellipse transform="matrix(-0.9268 -0.3755 0.3755 -0.9268 361.2527 636.6002)" fill="#5281A5" cx="242.659" cy="283.098" rx="3.929" ry="3.758"/>
	<path fill="#CA982B" d="M241.425,309.44c1.024-0.66,1.084-2.393,0.133-3.874c-0.318-0.495-0.712-0.89-1.13-1.183
		c0.44-0.461,0.806-1.006,1.059-1.629c0.032-0.08,0.055-0.16,0.082-0.241c0.503,0.112,1.064,0.138,1.648,0.037
		c1.733-0.299,2.974-1.515,2.766-2.715c-0.207-1.2-1.78-1.932-3.514-1.633c-0.401,0.069-0.773,0.191-1.109,0.347
		c-0.199-0.43-0.456-0.836-0.761-1.21c0.35-0.09,0.705-0.222,1.049-0.414c1.54-0.854,2.309-2.408,1.717-3.474
		c-0.591-1.065-2.317-1.237-3.856-0.384c-1.054,0.584-1.733,1.497-1.875,2.357c-0.539-0.149-1.083-0.219-1.618-0.211
		c0.175-0.735,0.077-1.648-0.353-2.526c-0.771-1.582-2.284-2.432-3.379-1.896c-1.095,0.533-1.357,2.248-0.585,3.83
		c0.32,0.658,0.772,1.179,1.266,1.536c-0.595,0.401-1.107,0.922-1.5,1.544c-0.113-0.042-0.221-0.087-0.338-0.119
		c-1.697-0.469-3.334,0.103-3.659,1.278c-0.325,1.174,0.788,2.505,2.484,2.974c0.316,0.088,0.626,0.127,0.93,0.146
		c0.191,0.645,0.502,1.256,0.919,1.802c-0.235,0.138-0.467,0.292-0.685,0.482c-1.327,1.156-1.754,2.838-0.954,3.757
		c0.799,0.919,2.524,0.726,3.851-0.431c0.565-0.492,0.956-1.08,1.17-1.664c0.673,0.15,1.351,0.173,2.004,0.086
		c0.039,0.625,0.25,1.304,0.658,1.942C238.798,309.432,240.4,310.098,241.425,309.44z M234.48,305.036
		c-2.539-1.029-3.8-3.831-2.816-6.26c0.984-2.429,3.84-3.564,6.379-2.536c2.54,1.028,3.8,3.831,2.817,6.259
		C239.876,304.93,237.02,306.064,234.48,305.036z"/>
	
		<ellipse transform="matrix(-0.9269 -0.3753 0.3753 -0.9269 342.4299 667.9374)" fill="#5281A5" cx="236.269" cy="300.617" rx="3.928" ry="3.758"/>
	<path fill="#CA982B" d="M254.515,315.835c-0.408-0.009-0.794,0.042-1.155,0.13c-0.114-0.459-0.289-0.907-0.519-1.333
		c0.361-0.021,0.734-0.083,1.11-0.207c1.672-0.547,2.722-1.928,2.343-3.085c-0.378-1.158-2.041-1.655-3.713-1.108
		c-1.146,0.375-1.984,1.142-2.288,1.959c-0.501-0.248-1.021-0.417-1.547-0.513c0.31-0.688,0.385-1.603,0.13-2.547
		c-0.458-1.699-1.782-2.82-2.958-2.502c-1.177,0.316-1.759,1.952-1.301,3.65c0.19,0.707,0.535,1.303,0.952,1.748
		c-0.66,0.281-1.262,0.695-1.766,1.232c-0.103-0.062-0.199-0.128-0.309-0.182c-1.577-0.78-3.293-0.53-3.833,0.563
		c-0.542,1.091,0.297,2.609,1.875,3.39c0.294,0.146,0.591,0.245,0.886,0.318c0.066,0.67,0.256,1.329,0.562,1.944
		c-0.257,0.09-0.514,0.199-0.765,0.344c-1.522,0.884-2.26,2.454-1.647,3.508c0.611,1.053,2.341,1.191,3.862,0.308
		c0.649-0.377,1.143-0.881,1.462-1.413c0.634,0.274,1.294,0.426,1.953,0.463c-0.08,0.623-0.002,1.33,0.279,2.032
		c0.653,1.634,2.1,2.591,3.231,2.138c1.132-0.453,1.518-2.144,0.864-3.776c-0.218-0.547-0.53-1.008-0.884-1.376
		c0.52-0.371,0.982-0.834,1.348-1.399c0.047-0.071,0.084-0.147,0.128-0.22c0.472,0.205,1.018,0.335,1.61,0.347
		c1.76,0.036,3.207-0.922,3.23-2.142C257.681,316.885,256.274,315.87,254.515,315.835z M252.119,319.751
		c-1.427,2.198-4.445,2.772-6.745,1.281c-2.298-1.492-3.005-4.481-1.579-6.681c1.426-2.198,4.445-2.772,6.743-1.281
		C252.837,314.561,253.546,317.551,252.119,319.751z"/>
	
		<ellipse transform="matrix(-0.8391 -0.5439 0.5439 -0.8391 283.5522 717.9499)" fill="#5281A5" cx="247.94" cy="317.046" rx="3.929" ry="3.758"/>
	<ellipse fill="#5281A5" cx="84.65" cy="340.357" rx="5.755" ry="9.35"/>
	
		<ellipse transform="matrix(-0.941 0.3385 -0.3385 -0.941 211.3035 659.5416)" fill="#5281A5" cx="48.142" cy="348.196" rx="3.922" ry="6.373"/>
	
		<ellipse transform="matrix(-0.902 0.4318 -0.4318 -0.902 226.3341 651.4514)" fill="#5281A5" cx="39.223" cy="351.416" rx="3.037" ry="4.935"/>
	<path fill="#5281A5" d="M32.45,353.087c-1.364,0-2.461,1.096-2.461,2.462c0,1.366,1.097,2.46,2.461,2.46
		c1.366,0,2.462-1.094,2.462-2.46C34.912,354.183,33.816,353.087,32.45,353.087z"/>
	<circle fill="#5281A5" cx="27.835" cy="360.472" r="1.846"/>
	<ellipse fill="#5281A5" cx="84.65" cy="320.063" rx="5.755" ry="9.351"/>
	
		<ellipse transform="matrix(0.941 0.3385 -0.3385 0.941 108.5352 2.1453)" fill="#5281A5" cx="48.117" cy="312.232" rx="3.922" ry="6.373"/>
	
		<ellipse transform="matrix(0.902 0.4318 -0.4318 0.902 137.2704 13.3623)" fill="#5281A5" cx="39.207" cy="308.993" rx="3.037" ry="4.935"/>
	<path fill="#5281A5" d="M32.832,307.587c1.366,0,2.462-1.097,2.462-2.462c0-1.367-1.096-2.462-2.462-2.462
		c-1.364,0-2.461,1.095-2.461,2.462C30.371,306.49,31.468,307.587,32.832,307.587z"/>
	<circle fill="#5281A5" cx="28.217" cy="300.202" r="1.846"/>
	<path fill="#5281A5" d="M76.264,329.001c-0.345-2.159-1.121-4.067-2.135-5.518c0.837-1.157,1.514-2.633,1.905-4.302
		c1.033-4.426-0.337-8.529-3.061-9.165c-2.723-0.636-5.769,2.437-6.802,6.862c-0.497,2.128-0.434,4.178,0.064,5.808
		c-1.282,1.897-1.852,4.898-1.336,8.128c0.333,2.083,1.067,3.931,2.03,5.361c-1.079,1.74-1.432,4.481-0.758,7.368
		c1.034,4.425,4.079,7.498,6.802,6.861c2.724-0.636,4.093-4.739,3.061-9.164c-0.319-1.363-0.829-2.595-1.46-3.632
		C76.102,335.763,76.824,332.516,76.264,329.001z"/>
	<path fill="#5281A5" d="M63.164,317.007c0.909-3.894-0.297-7.505-2.693-8.065s-5.077,2.144-5.986,6.039
		c-0.68,2.908-0.178,5.657,1.118,7.096c-1.978,1.051-3.535,3.929-3.785,7.423c-0.31,4.343,1.514,8.037,4.12,8.515
		c-1.54,1.315-2.188,4.277-1.452,7.424c0.909,3.895,3.589,6.598,5.986,6.038s3.603-4.171,2.693-8.064
		c-0.739-3.161-2.643-5.537-4.615-6.021c1.777-1.212,3.139-3.925,3.37-7.172c0.234-3.272-0.746-6.175-2.358-7.614
		C61.144,321.693,62.552,319.621,63.164,317.007z"/>
	
		<ellipse transform="matrix(0.0712 -0.9975 0.9975 0.0712 -286.7 349.3502)" fill="#5281A5" cx="44.239" cy="328.623" rx="7.241" ry="4.456"/>
	
		<ellipse transform="matrix(-0.9825 -0.1861 0.1861 -0.9825 4.9563 655.3007)" fill="#5281A5" cx="33.23" cy="327.418" rx="3.922" ry="6.372"/>
	
		<ellipse transform="matrix(-0.9587 -0.2844 0.2844 -0.9587 -45.7234 644.2421)" fill="#5281A5" cx="23.915" cy="325.441" rx="3.037" ry="4.935"/>
	<path fill="#5281A5" d="M16.303,320.169c-1.348,0.215-2.257,1.47-2.043,2.819c0.215,1.348,1.47,2.257,2.819,2.043
		c1.348-0.214,2.257-1.47,2.043-2.819C18.908,320.865,17.652,319.956,16.303,320.169z"/>
	<circle fill="#5281A5" cx="11.357" cy="318.466" r="1.847"/>
	<path fill="#CA982B" d="M96.481,309.756c0.164-0.21,0.322-0.422,0.478-0.632c0.878-1.194,0.924-0.789,0.456,0.421
		c-0.518,1.334-0.814,2.482-0.704,3.195c0.474,3.025,4.996,3.516,6.433,0.812c1.437-2.705,2.004-1.048,2.537-0.182
		c1.108,1.801,7.389,2.524,6.917-2.197c0.45,0.526,0.876,0.916,1.26,1.101c2.758,1.328,5.73-2.117,4.319-4.835
		c-1.411-2.718,0.274-2.245,1.289-2.192c2.349,0.123,7.234-5.774,0.407-7.609c-1.716-0.461-1.697-0.739-0.354-0.785
		c1.341-0.046,2.434-0.217,3.021-0.576c2.609-1.602,1.32-5.964-1.729-6.249c-3.048-0.285-1.739-1.445-1.145-2.271
		c1.374-1.908-0.943-9.209-6.179-4.46c-0.461,0.419-0.902,0.841-1.32,1.263c-1.032,1.042-1.181,0.287-0.644-0.956
		c0.562-1.297,0.896-2.416,0.814-3.126c-0.351-3.042-4.849-3.715-6.394-1.071c-1.546,2.644-2.045,0.966-2.542,0.08
		c-1.15-2.05-8.745-3.032-6.65,3.721c0.526,1.696,0.384,2.01-0.325,0.942c-0.81-1.22-1.592-2.146-2.25-2.47
		c-2.748-1.352-5.749,2.068-4.361,4.798c1.387,2.73-0.292,2.243-1.308,2.18c-2.346-0.141-7.282,5.715-0.471,7.606
		c0.449,0.125,0.893,0.238,1.329,0.339c0.631,0.147,0.608,0.54,0.023,0.635c-1.872,0.308-3.429,0.734-4.095,1.326
		c-2.289,2.035-0.254,6.104,2.797,5.851c3.052-0.255,1.966,1.117,1.526,2.034C88.599,308.569,92.158,315.35,96.481,309.756z
		 M103.135,305.932c-0.291,0.921-0.577,3.56-1.352,5.076c-0.775,1.518-1.259,2.113-2.659,1.313c-1.4-0.8,2.896-7.007,2.896-7.007
		C102.963,304.006,103.426,305.01,103.135,305.932z M108.276,313.131c-1.598,0.216-1.957-7.324-1.957-7.324
		c-0.046-1.611,0.931-1.097,1.261-0.188c0.329,0.909,1.704,3.178,2.01,4.854C109.896,312.149,109.874,312.917,108.276,313.131z
		 M119.827,303.156c-0.73,1.439-7.141-2.546-7.141-2.546c-1.354-0.877-0.375-1.389,0.561-1.144c0.934,0.244,3.583,0.4,5.138,1.1
		C119.937,301.264,120.556,301.718,119.827,303.156z M120.467,294.374c-0.199,1.6-7.582,0.026-7.582,0.026
		c-1.57-0.366-0.823-1.18,0.139-1.266c0.962-0.086,3.508-0.838,5.207-0.709C119.93,292.556,120.666,292.773,120.467,294.374z
		 M111.396,289.163c0.712-0.653,2.276-2.796,3.705-3.725c1.429-0.929,2.146-1.204,2.96,0.188s-6.005,4.627-6.005,4.627
		C110.585,290.918,110.685,289.816,111.396,289.163z M111.266,303.293c0.688,0.679,2.903,2.139,3.9,3.521s1.305,2.086-0.046,2.965
		c-1.352,0.88-4.912-5.776-4.912-5.776C109.474,302.567,110.578,302.613,111.266,303.293z M105.631,286.917
		c0.244-0.935,0.396-3.584,1.093-5.139c0.697-1.555,1.15-2.175,2.589-1.447c1.438,0.729-2.537,7.146-2.537,7.146
		C105.902,288.831,105.389,287.853,105.631,286.917z M101.135,279.86c1.606-0.15,1.661,7.397,1.661,7.397
		c-0.019,1.613-0.975,1.059-1.267,0.137s-1.576-3.244-1.814-4.931C99.476,280.776,99.53,280.011,101.135,279.86z M103.793,290.249
		c3.376,0,6.114,2.737,6.114,6.114c0,3.377-2.738,6.114-6.114,6.114c-3.377,0-6.114-2.737-6.114-6.114
		C97.679,292.986,100.417,290.249,103.793,290.249z M92.311,284.075c1.369-0.851,4.784,5.881,4.784,5.881
		c0.702,1.451-0.398,1.381-1.073,0.687c-0.672-0.693-2.856-2.2-3.821-3.603C91.233,285.635,90.938,284.925,92.311,284.075z
		 M88.834,294.03c-1.547-0.711-2.163-1.171-1.42-2.602c0.742-1.433,7.12,2.606,7.12,2.606c1.345,0.888,0.361,1.392-0.571,1.139
		C93.03,294.921,90.382,294.742,88.834,294.03z M89.458,302.017c-1.696,0.168-2.458,0.084-2.543-1.526
		c-0.084-1.611,7.46-1.357,7.46-1.357c1.61,0.084,1.017,1.018,0.085,1.271C93.526,300.661,91.153,301.848,89.458,302.017z
		 M91.898,308.621c-1.146-1.137,4.612-6.019,4.612-6.019c1.25-1.02,1.438,0.069,0.918,0.885c-0.52,0.815-1.48,3.289-2.622,4.554
		C93.666,309.305,93.043,309.756,91.898,308.621z"/>
	<circle fill="#5281A5" cx="103.793" cy="296.362" r="4.237"/>
	<path fill="#6F844C" d="M128.376,307.213c2.373-1.696,3.052-3.051-0.338-1.696c-3.287,1.315-6.781,5.087-7.46,7.799
		c-0.677,2.713-1.695,3.73-1.695,3.73s-8.477-0.339-9.833,2.373c-1.356,2.712-0.678,6.781-0.678,6.781s-6.103,1.356-7.459,4.068
		c-1.356,2.713,2.035,4.748,2.035,4.748s-6.104,4.068-6.442,7.799c-0.339,3.73,4.408,8.137,4.408,8.137s-2.373,8.817,2.374,10.173
		s7.46-6.103,7.46-6.103s5.764,0.678,8.138-2.036c2.374-2.711,1.018-6.44,1.018-6.44s3.729-0.34,6.442-3.73
		c2.712-3.392-0.34-7.121-0.34-7.121s2.036-3.052,2.374-8.477c0.339-5.425-5.086-9.495-5.086-9.495s-1.356-1.695,0-4.746
		C124.646,309.926,126.002,308.908,128.376,307.213z M106.093,351.498c-0.18,0.285-0.568,0.362-0.853,0.156
		c-0.286-0.183-0.362-0.569-0.182-0.854c6.49-9.206,13.936-18.848,14.556-30.586c0-0.336,0.285-0.619,0.622-0.619
		c0.336,0,0.62,0.283,0.62,0.619C120.262,332.159,112.765,342.113,106.093,351.498z"/>
	<path fill="#5281A5" d="M167.445,321.507c-1.579-0.449-3.096-0.561-4.311-0.386c0.013-0.199,0.034-0.397,0.034-0.6
		c0-0.626-0.069-1.234-0.172-1.835c1.351,0.179,3.183-0.144,5.033-1.004c3.152-1.466,4.419-5.426,4.419-5.426
		s-3.844-1.583-6.996-0.117c-1.668,0.775-3.002,1.821-3.788,2.862c-0.402-0.695-0.875-1.347-1.414-1.951
		c1.284-0.449,2.768-1.55,4.032-3.137c2.167-2.718,1.531-6.827,1.531-6.827s-4.146,0.299-6.312,3.017
		c-1.237,1.554-1.972,3.207-2.144,4.543c-0.553-0.336-1.141-0.624-1.749-0.883c0.971-0.966,1.828-2.654,2.259-4.677
		c0.725-3.4-1.678-6.793-1.678-6.793s-3.578,2.119-4.301,5.519c-0.406,1.904-0.349,3.695,0.07,4.965
		c-0.616-0.081-1.24-0.138-1.88-0.138c-0.188,0-0.372,0.019-0.559,0.027c0.423-1.271,0.483-3.069,0.076-4.981
		c-0.725-3.399-4.302-5.519-4.302-5.519s-2.402,3.393-1.678,6.793c0.393,1.842,1.14,3.407,2.003,4.403
		c-0.781,0.257-1.525,0.578-2.229,0.958c-0.34-1.111-0.979-2.342-1.917-3.517c-2.166-2.719-6.312-3.018-6.312-3.018
		s-0.635,4.109,1.531,6.827c0.944,1.185,2.01,2.089,3.025,2.668c-0.444,0.522-0.848,1.074-1.192,1.66
		c-0.709-0.586-1.576-1.138-2.558-1.593c-3.151-1.465-6.997,0.119-6.997,0.119s1.267,3.959,4.419,5.426
		c1.268,0.59,2.525,0.922,3.632,1.021c-0.012,0.203-0.034,0.405-0.034,0.609c0,0.592,0.062,1.17,0.154,1.738
		c-0.631,0.074-1.29,0.202-1.961,0.392c-3.344,0.952-5.218,4.664-5.218,4.664s3.548,2.168,6.891,1.217
		c0.97-0.275,1.851-0.649,2.608-1.078c0.268,0.339,0.557,0.662,0.862,0.973c-0.888,0.581-1.799,1.41-2.615,2.436
		c-2.167,2.718-1.531,6.827-1.531,6.827s4.146-0.299,6.312-3.017c0.92-1.155,1.554-2.364,1.899-3.461
		c0.745,0.327,1.528,0.591,2.343,0.787c-0.905,0.987-1.693,2.606-2.101,4.518c-0.725,3.399,1.679,6.792,1.679,6.792
		s3.577-2.118,4.302-5.518c0.455-2.134,0.328-4.125-0.238-5.4c0.674-0.013,1.337-0.075,1.983-0.177
		c-0.434,1.353-0.238,3.463,0.642,5.62c1.313,3.218,5.209,4.672,5.209,4.672s1.765-3.764,0.452-6.982
		c-0.79-1.936-1.948-3.457-3.085-4.229c1.067-0.45,2.059-1.018,2.945-1.699c0.284,1.226,0.99,2.652,2.06,3.997
		c2.167,2.718,6.312,3.017,6.312,3.017s0.635-4.109-1.531-6.827c-1.277-1.604-2.779-2.713-4.071-3.152
		c0.244-0.367,0.466-0.746,0.666-1.138c0.938,0.769,2.265,1.456,3.815,1.896c3.343,0.952,6.89-1.218,6.89-1.218
		S170.788,322.458,167.445,321.507z M150.027,331.058c-6.455,0-11.688-4.75-11.688-10.609c0-5.859,5.232-10.609,11.688-10.609
		s11.688,4.75,11.688,10.609C161.715,326.309,156.482,331.058,150.027,331.058z"/>
	<ellipse fill="#CA982B" cx="150.027" cy="320.449" rx="9.257" ry="8.403"/>
	<path fill="#5281A5" d="M121.882,276.479c1.125,0,2.09-0.676,2.516-1.644c2.477,0.066,4.964,0.18,7.379,0.626
		c-0.13,0.488-0.205,1-0.205,1.53c0,0.841,0.174,1.641,0.488,2.366c-0.283,0.057-0.566,0.106-0.852,0.172
		c-1.424,0.336-2.732,0.679-4.063,1.194c-0.429,0.163-0.851,0.346-1.251,0.566c-0.353-0.355-0.84-0.577-1.38-0.577
		c-1.073,0-1.943,0.869-1.943,1.942c0,1.072,0.87,1.942,1.943,1.942c1.072,0,1.942-0.87,1.942-1.942
		c0-0.187-0.035-0.365-0.085-0.536c1.444-0.977,3.393-1.207,5.089-1.674c0.349-0.097,0.701-0.168,1.051-0.243
		c1.064,1.667,2.924,2.777,5.049,2.777c3.307,0,5.989-2.682,5.989-5.988c0-3.308-2.682-5.99-5.989-5.99
		c-1.227,0-2.366,0.372-3.316,1.004c-0.136-0.145-0.278-0.279-0.41-0.43c-1.235-1.419-2.124-3.003-3.143-4.502
		c0.504-0.444,0.828-1.088,0.828-1.813c0-1.34-1.085-2.427-2.427-2.427c-1.34,0-2.427,1.086-2.427,2.427
		c0,1.341,1.087,2.428,2.427,2.428c0.263,0,0.511-0.053,0.749-0.129c1.165,1.721,2.356,3.435,3.722,4.982
		c-0.629,0.565-1.139,1.259-1.484,2.045c-2.442-0.466-4.957-0.599-7.464-0.663c0.005-0.065,0.02-0.127,0.02-0.194
		c0-1.52-1.232-2.751-2.752-2.751c-1.519,0-2.75,1.231-2.75,2.751C119.132,275.247,120.363,276.479,121.882,276.479z"/>
	<path fill="#5281A5" d="M151.567,253.979c0.725,0.007,1.372-0.312,1.821-0.812c1.489,1.034,3.065,1.937,4.473,3.185
		c0.15,0.134,0.283,0.278,0.425,0.414c-0.641,0.943-1.022,2.08-1.034,3.307c-0.03,3.307,2.625,6.012,5.932,6.043
		c3.308,0.03,6.012-2.625,6.043-5.933c0.02-2.123-1.072-3.995-2.729-5.074c0.077-0.35,0.153-0.7,0.253-1.05
		c0.482-1.691,0.731-3.637,1.721-5.07c0.171,0.05,0.348,0.087,0.535,0.089c1.072,0.009,1.951-0.853,1.96-1.924
		c0.011-1.073-0.852-1.951-1.924-1.961c-1.072-0.009-1.949,0.852-1.96,1.924c-0.004,0.54,0.211,1.031,0.565,1.386
		c-0.225,0.399-0.411,0.819-0.578,1.247c-0.527,1.325-0.883,2.631-1.231,4.051c-0.07,0.286-0.121,0.567-0.18,0.851
		c-0.724-0.321-1.522-0.502-2.364-0.511c-0.529-0.004-1.041,0.065-1.532,0.19c-0.422-2.419-0.513-4.906-0.557-7.384
		c0.972-0.417,1.658-1.375,1.668-2.5c0.015-1.52-1.205-2.763-2.725-2.777c-1.519-0.014-2.763,1.207-2.776,2.726
		c-0.014,1.519,1.206,2.762,2.725,2.777c0.066,0.001,0.129-0.013,0.194-0.018c0.042,2.507,0.152,5.023,0.593,7.47
		c-0.788,0.337-1.486,0.841-2.058,1.465c-1.535-1.38-3.237-2.587-4.947-3.769c0.08-0.236,0.133-0.484,0.137-0.748
		c0.011-1.34-1.065-2.438-2.405-2.45c-1.341-0.012-2.438,1.065-2.451,2.405C149.148,252.87,150.227,253.967,151.567,253.979z"/>
	<path fill="#5281A5" d="M195.998,327.485c1.781-2.416,1.908-3.688-0.635-4.45c-2.543-0.764-3.306-5.595-3.306-5.595
		s-0.635-0.128-3.179-0.254c-2.543-0.128-7.005-1.346-7.629,1.398c-1.271,5.595,7.502,7.121,7.502,7.121s-1.398,3.941,0.381,5.977
		C190.913,333.716,194.219,329.901,195.998,327.485z"/>
	<path fill="#5281A5" d="M199.317,327.598c-1.924,0.916-6.23,5.339-6.993,8.391c-0.763,3.052-0.51,10.3,0.126,13.479
		c0.636,3.179,1.018,4.324,2.289,1.145c1.271-3.179,1.017-4.196,5.594-6.994c4.578-2.797,11.698-5.34,8.646-11.316
		C205.929,326.326,201.988,326.326,199.317,327.598z"/>
	<path fill="#5281A5" d="M186.064,331.005c-1.272-2.162-1.781-4.705-1.781-4.705s-3.814-2.162-4.832-4.45
		c-1.017-2.289-0.254-4.705-0.254-4.705s-1.145-0.382-1.78-0.509c-0.636-0.126-2.543-1.398-2.543-1.398s-2.289,5.086-1.018,8.647
		c1.271,3.56,7.248,6.739,7.248,6.739s-1.271,4.577,1.908,7.501c3.179,2.925,6.739,2.798,6.739,2.798s-0.253-1.908-0.253-2.798
		s0.508-3.941,0.508-3.941S187.335,333.167,186.064,331.005z"/>
	
		<ellipse transform="matrix(0.5646 0.8254 -0.8254 0.5646 349.487 -27.1046)" fill="#CA982B" cx="200.434" cy="317.702" rx="7.931" ry="4.582"/>
	<path fill="#5281A5" d="M206.359,324.791c0,0,0.874,2.617,2.867,0.624c1.994-1.994,5.109-8.225,2.367-13.458
		c-2.74-5.233-10.341-6.604-12.833-6.231c-2.492,0.374-4.112,3.24-2.368,3.24c0,0,6.23-0.623,8.847,3.987
		c2.618,4.611,2.742,7.851,2.493,9.347C207.481,323.794,206.359,324.791,206.359,324.791z"/>
	<path fill="#CA982B" d="M219.902,331.381c3.738-4.485,1.247-8.598,1.247-8.598s4.61-3.364,3.239-8.848
		c-1.37-5.482-5.731-6.354-5.731-6.354s1.122-5.981-3.365-8.349c-4.486-2.367-9.097-0.497-9.097-0.497s-2.492-3.989-7.477-3.49
		c-4.985,0.498-6.729,3.862-6.729,3.862s1.372,1.372,2.244,2.493c0.871,1.121,2.366,3.614,2.366,3.614s5.857-2.244,10.467,0.623
		c4.61,2.867,7.353,6.604,7.478,11.215c0.124,4.611-5.234,10.218-5.234,10.218s1.247,2.618,1.496,3.988
		c0.249,1.37,0.623,3.987,0.623,3.987S216.163,335.868,219.902,331.381z"/>
	<path fill="#5281A5" d="M202.845,293.76c1.145,0.636,3.688,2.797,3.688,2.797s0.762-1.781-0.51-3.943
		c-1.271-2.161-4.704-5.721-9.027-5.339c-4.324,0.381-7.501,3.56-7.756,6.739c-0.255,3.179,1.526,3.56,1.526,3.56
		s3.433-3.813,5.722-4.068C198.776,293.251,201.701,293.123,202.845,293.76z"/>
	<path fill="#5281A5" d="M208.949,294.05c-0.763,0.89-0.636,2.416-0.636,2.416s6.612-0.253,7.883,0.891
		c1.272,1.145,3.688,3.179,3.815,5.468c0.127,2.29,0.254,3.433,0.254,3.433s1.017-0.128,1.654-1.526
		c0.636-1.398,2.797-7.883-1.018-11.571C217.086,289.472,209.711,293.16,208.949,294.05z"/>
	<path fill="#5281A5" d="M224.198,307.17c-2.416-0.126-2.289,0.128-0.636,0.637c1.653,0.509,2.797,3.432,3.306,5.722
		c0.509,2.289-1.272,7.375-2.289,8.265c-1.017,0.891-1.526,3.051,0.255,2.034c1.324-0.756,8.01-4.576,7.628-9.409
		C232.082,309.585,226.614,307.298,224.198,307.17z"/>
	<path fill="#5281A5" d="M224.499,326.116c0.253,1.398-0.764,6.104-3.052,7.629c-2.288,1.526-4.958,2.924-7.375,3.179
		c-2.416,0.254-2.034,1.907-0.381,2.288c1.653,0.382,4.832,1.399,10.172-1.398c5.341-2.797,3.179-11.317,2.797-11.825
		C225.937,325.024,224.245,324.717,224.499,326.116z"/>
	<path fill="#6F844C" d="M264.136,293.681c2.761-1.838,6.117-2.513,9.369-2.734c0.54-0.022,0.964-0.485,0.941-1.025
		c-0.024-0.546-0.485-0.971-1.033-0.94c-1.851,0.11-3.722,0.386-5.524,0.89c0.774-2.16,2.16-7.617-1.614-11.875
		c-4.81-5.426-11.347-8.756-12.704-8.017c-1.357,0.739-0.617,7.4,0.247,10.729c0.863,3.332,2.59,5.304,5.919,7.524
		c2.042,1.361,3.706,2.394,4.693,2.992c-1.124,0.586-2.189,1.296-3.15,2.188c-1.619,1.496-3.083,2.922-4.826,4.317
		c-2.358,1.896-4.917,3.107-7.4,4.618c-0.439,0.315-0.546,0.932-0.24,1.378c0.317,0.44,0.933,0.547,1.38,0.239
		c2.498-1.51,5.05-2.736,7.416-4.633c0.872-0.696,1.676-1.4,2.464-2.118c-0.375,0.796-0.795,1.71-1.248,2.723
		c-1.627,3.657-2.033,6.248-0.981,9.523c1.05,3.277,3.985,9.301,5.526,9.201c1.542-0.099,5.287-6.408,6.452-13.566
		C270.899,298.487,265.041,294.287,264.136,293.681z M257.642,278.861c-1.85-2.344-0.37-2.714,1.356-0.494
		c1.726,2.219,5.673,7.031,6.414,8.387c0.503,0.92,1.06,2.521,1.367,3.455c-0.345,0.119-0.686,0.253-1.023,0.392
		C264.3,288.427,259.221,280.86,257.642,278.861z M262.998,309.95c-0.273,2.799-1.721,3.278-1.411,0.309
		c0.263-2.499,0.508-11.392,0.579-14.15c0.309-0.283,0.632-0.539,0.96-0.784c0.2,0.765,0.729,2.864,0.809,4.109
		C264.035,300.977,263.271,307.151,262.998,309.95z"/>
	<path fill="#5281A5" d="M292.869,288.285c0,0-1.908-0.764-3.56-1.908c-1.653-1.145-3.434-3.56-3.434-3.56
		s-8.963-1.061-10.427,8.138c-0.89,5.594,4.07,10.553,4.07,10.553s2.034-1.272,4.832-2.035c2.797-0.764,4.322-1.145,4.195-1.653
		c-0.127-0.509-0.509-3.561,0.382-5.34C289.816,290.7,292.869,288.285,292.869,288.285z"/>
	<path fill="#5281A5" d="M223.755,286.133c-1.146-0.254-3.306-1.018-6.612-2.543c-3.306-1.525-4.705-3.306-5.34-4.959
		c-0.636-1.653-1.018-6.357-1.018-6.357s-5.213-6.104-16.403-6.484c-11.189-0.382-16.148,5.975-17.166,8.772
		c-1.017,2.797,2.162,1.78,9.409-0.255c7.248-2.034,13.733,4.451,20.854,10.3s14.529,3.266,16.911,2.67
		C225.916,286.897,224.899,286.388,223.755,286.133z"/>
	<path fill="#5281A5" d="M196.527,248.158c-0.067,0.322-0.065,0.641-0.012,0.945c-0.337-0.117-0.703-0.17-1.083-0.133
		c-1.399,0.138-2.419,1.38-2.281,2.78c0.057,0.586,0.316,1.098,0.691,1.494c-1.25,0.266-2.129,1.42-2,2.724
		c0.092,0.934,0.68,1.689,1.474,2.054c-0.852,0.479-1.386,1.426-1.285,2.464c0.138,1.4,1.38,2.419,2.78,2.281s2.419-1.38,2.281-2.78
		c-0.092-0.933-0.68-1.689-1.474-2.053c0.853-0.48,1.387-1.427,1.284-2.465c-0.058-0.585-0.315-1.098-0.692-1.494
		c1.25-0.266,2.13-1.42,2.002-2.724c-0.006-0.065-0.028-0.126-0.038-0.189c0.107,0.038,0.212,0.079,0.327,0.104
		c1.282,0.265,2.522-0.487,2.919-1.702c0.354,0.415,0.835,0.727,1.413,0.847c1.02,0.211,2.019-0.22,2.586-1.017
		c0.278,0.827,0.967,1.492,1.886,1.683c1.377,0.286,2.72-0.596,3.005-1.974c0.286-1.376-0.597-2.721-1.973-3.006
		c-1.021-0.211-2.02,0.22-2.586,1.017c-0.278-0.828-0.967-1.493-1.886-1.683c-1.281-0.267-2.523,0.485-2.921,1.701
		c-0.354-0.415-0.835-0.727-1.412-0.846C198.155,245.898,196.812,246.781,196.527,248.158z"/>
	<path fill="#5281A5" d="M183.771,265.231c0.636,0.636,0.763,0.382,0.763,0.382s1.908-1.145,3.561-1.272
		c1.653-0.126,2.797-0.508,2.797-0.508s-1.271-1.398-1.399-2.543c-0.127-1.145,0.763-2.162,0.763-2.162s-1.018-2.669-0.89-3.561
		c0.127-0.89,1.398-1.653,1.398-1.653s-0.762-1.779-6.357-1.271c-5.595,0.51-7.375,4.578-7.375,4.578s1.907,2.924,3.051,4.322
		C181.228,262.942,183.136,264.595,183.771,265.231z"/>
	<path fill="#5281A5" d="M218.766,263.643c0,0,4.749,1.064,6.396,1.714c3.541,1.396,6.114,5.541,7.357,11.368
		c0.244,1.145,0.745,2.167,1.139,0.645c0.615-2.377,3.259-9.765-2.533-16.933c-5.791-7.168-12.223-13.705-10.129-20.937
		c2.094-7.23,3.137-10.401,0.331-9.407c-2.806,0.995-9.204,5.902-8.913,17.095C212.706,258.38,218.766,263.643,218.766,263.643z"/>
	<path fill="#5281A5" d="M200.425,244.117c0,0,0.774-1.266,1.665-1.385c0.892-0.12,3.553,0.919,3.553,0.919s1.024-0.882,2.167-0.746
		c1.144,0.136,2.532,1.42,2.532,1.42s0.391-1.142,0.532-2.793c0.14-1.652,1.299-3.549,1.299-3.549s0.256-0.126-0.374-0.767
		c-0.631-0.641-2.269-2.561-3.658-3.718c-1.389-1.155-4.298-3.086-4.298-3.086s-4.083,1.747-4.638,7.338
		C198.652,243.34,200.425,244.117,200.425,244.117z"/>
	<path fill="#5281A5" d="M184.21,244.288c1.018,3.687,2.034,5.976,2.034,5.976s0.254,0,0.763,0c0.509,0,3.433,1.271,3.433,1.271
		s0-1.78,0.762-3.051c0.372-0.619,1.012-0.932,1.573-1.096l1.065,0.247c0,0,0.015-1.908,1.293-2.66
		c1.278-0.753,3.058-0.738,3.058-0.738s-1.248-2.935-1.244-3.444c0.003-0.508,0.006-0.763,0.006-0.763s-2.281-1.035-5.959-2.083
		c-1.152-0.328-2.524-0.718-3.759-0.974c-3.786-0.784-4.441,0.021-4.181,2.269C183.229,240.728,183.777,242.715,184.21,244.288z"/>
	<path fill="#5281A5" d="M230.469,285.084c1.198-0.987,1.271-9.282-2.417-12.97c-3.687-3.688-5.976-4.068-8.392-4.578
		c-2.416-0.508-3.56-0.636-6.103-2.669c-2.543-2.035-3.687-1.78-2.289,0.509s2.925,5.594,3.179,9.027
		c0.254,3.433,1.271,6.231,4.704,7.756C222.586,283.686,228.308,286.864,230.469,285.084z"/>
	<path fill="#CA982B" d="M198.493,260.244c0.246,1.48-0.371,2.713-0.371,2.713s2.591,0.741,4.687,1.481
		c2.098,0.74,3.946,1.85,5.673,2.836c1.727,0.987,2.714,1.603,1.974,0.124c-0.74-1.48-0.864-1.727-2.097-3.823
		c-1.233-2.097-0.161-4.113,2.307-2.386c2.466,1.728,4.006,2.705,4.006,2.3c0-2.042-3.694-5.529-4.462-8.424
		c-0.636-2.396-0.248-3.946-0.863-3.083c-0.617,0.863-2.22,0.863-2.714,0.863c-0.494,0-1.479-0.987-1.479-0.987
		s-1.356,0-1.727,0.124c-0.369,0.123-1.48-0.247-1.48-0.247s-1.109,0.741-1.479,0.987c-0.371,0.248-1.356,0.248-1.356,0.248
		s0,1.109-0.371,1.604c-0.369,0.494-0.863,0.617-0.74,1.357c0.123,0.739-0.494,2.22-0.494,2.22S198.246,258.765,198.493,260.244z
		 M207.423,256.056c0.841,0,1.525,0.684,1.525,1.526s-0.684,1.525-1.525,1.525c-0.843,0-1.527-0.683-1.527-1.525
		S206.581,256.056,207.423,256.056z M205.134,261.188c0,0.843-0.684,1.526-1.526,1.526c-0.842,0-1.525-0.683-1.525-1.526
		c0-0.842,0.683-1.525,1.525-1.525C204.45,259.663,205.134,260.346,205.134,261.188z M202.624,253.894
		c0.843,0,1.526,0.683,1.526,1.525c0,0.843-0.683,1.526-1.526,1.526c-0.842,0-1.526-0.683-1.526-1.526
		C201.098,254.577,201.781,253.894,202.624,253.894z"/>
	<circle fill="#5281A5" cx="232.564" cy="214.452" r="1.846"/>
	<circle fill="#5281A5" cx="236.139" cy="221.134" r="1.846"/>
	<circle fill="#5281A5" cx="239.592" cy="227.446" r="1.846"/>
	<path fill="#5281A5" d="M226.114,209.009c2.67-0.382,8.647-0.254,9.282,1.399c0.636,1.653,3.815,7.883,5.595,12.587
		c1.78,4.705,8.011,8.393,15.005,6.867c6.993-1.526,7.756-2.925,3.94-2.925c-3.813,0-7.12-1.906-7.883-6.484
		c-0.762-4.577-0.635-3.561-0.381-7.249c0.075-1.089,1.86-2.319,2.934-2.054c3.589,0.884,2.659,0.452,6.785,2.577
		s4.932,5.855,3.766,9.488c-1.165,3.632,0.4,3.333,3.989-2.86c3.588-6.193,1.98-13.252-1.956-16.384
		c-3.936-3.132-8.898-8.063-10.278-9.173c-1.38-1.109,0.325-6.839,1.503-9.265c1.179-2.426-4.112-0.919-6.928,2.451
		c-2.465,2.949-3.725,6.283-3.415,8.869c0.641,5.344,0.828,10.785-7.558,6.002c-2.349-1.34-6.149-1.238-9.951,0.306
		C226.496,204.813,223.443,209.391,226.114,209.009z"/>
	<circle fill="#5281A5" cx="261.335" cy="193.05" r="1.847"/>
	<circle fill="#5281A5" cx="266.323" cy="197.626" r="1.846"/>
	<circle fill="#5281A5" cx="271.145" cy="202.73" r="1.847"/>
	<circle fill="#CA982B" cx="255.408" cy="219.149" r="1.754"/>
	<circle fill="#CA982B" cx="260.505" cy="223.441" r="1.755"/>
	<circle fill="#CA982B" cx="260.158" cy="216.511" r="1.755"/>
	<circle fill="#5281A5" cx="243.489" cy="199.896" r="1.847"/>
	<circle fill="#5281A5" cx="240.026" cy="194.896" r="1.847"/>
	<circle fill="#5281A5" cx="236.257" cy="190.511" r="1.847"/>
	<path fill="#5281A5" d="M300.098,202.229c2.035,2.543,3.814,4.069,4.705,3.942c2.141-0.305-1.144-10.172-5.341-13.223
		c-4.196-3.052-4.959-3.052-4.577-1.526C295.266,192.948,298.064,199.686,300.098,202.229z"/>
	<path fill="#6F844C" d="M291.853,202.068c-7.436,1.423-11.18,5.194-14.951,3.744c-3.772-1.451-2.927,0.031-1.081,1.204
		c1.846,1.174,8.701,3.092,12.721,2.11c4.022-0.983,5.481,0.083,6.228,2.08c0.744,1.997,1.102,3.889,1.102,3.889
		s2.856,0.99,3.165,1.992s0.684,0.854,0.996-0.437c0.312-1.29,3.392-5.533,3.392-5.533S299.287,200.646,291.853,202.068z"/>
	<path fill="#6F844C" d="M291.079,306.394c-0.635-1.146-4.577,3.561-10.298,6.993c-5.723,3.434-4.324,1.399-1.653-0.381
		c2.669-1.781,7.12-5.087,9.028-6.867c1.908-1.78,1.908-1.78,1.908-1.78s-0.891-1.399-1.018-2.417
		c-0.128-1.018-1.145-1.78-1.145-1.78s-5.085,0.127-9.917,4.832s-8.9,12.207-9.028,16.658c-0.127,4.449,1.017,2.416,1.907,0.636
		c0.891-1.781,3.18-3.814,6.994-3.18c3.815,0.637,8.011,1.019,10.808-0.762c2.797-1.78,5.086-9.028,5.086-9.028
		S291.716,307.538,291.079,306.394z"/>
	<path fill="#6F844C" d="M105.202,321.483c-3.704,0.651-7.766,1.054-11.261-0.572c-0.369-0.172-0.82-0.019-0.994,0.351
		c-0.198,0.372-0.042,0.825,0.354,1.018c3.735,1.892,8.138,1.378,12.126,0.701c0.396-0.072,0.687-0.462,0.637-0.863
		C105.988,321.698,105.597,321.411,105.202,321.483z"/>
	<path fill="#6F844C" d="M101.914,326.311c0.354-0.238,0.449-0.709,0.213-1.064c-0.237-0.333-0.71-0.425-1.066-0.19
		c-4.21,2.649-7.405,6.696-9.865,10.976c-0.141,0.404,0.023,0.828,0.426,0.994c0.379,0.168,0.83-0.024,0.994-0.4
		C94.959,332.626,97.916,328.771,101.914,326.311z"/>
	<path fill="#5281A5" d="M307.146,179.063c2.051,0,3.69-1.642,3.69-3.693c0-2.051-1.641-3.692-3.69-3.692
		c-2.054,0-3.693,1.641-3.693,3.692C303.453,177.421,305.093,179.063,307.146,179.063z"/>
	<path fill="#5281A5" d="M291.914,218.729c0.096,1.021,0.988,1.762,2.01,1.667c1.021-0.096,1.763-0.988,1.667-2.01
		c-0.096-1.019-0.989-1.761-2.01-1.666C292.559,216.814,291.818,217.708,291.914,218.729z"/>
	<path fill="#5281A5" d="M284.741,216.925c0.096,1.021,0.988,1.763,2.009,1.668c1.022-0.096,1.764-0.991,1.668-2.011
		c-0.096-1.021-0.99-1.762-2.011-1.666C285.386,215.011,284.646,215.904,284.741,216.925z"/>
	<path fill="#5281A5" d="M276.724,219.322c0.096,1.02,0.988,1.762,2.009,1.666c1.022-0.095,1.763-0.988,1.667-2.009
		c-0.096-1.021-0.989-1.763-2.009-1.668C277.369,217.406,276.628,218.3,276.724,219.322z"/>
	<path fill="#6F844C" d="M169.441,253.604c-0.637-0.005,0.242,1.274,1.488,3.956c1.246,2.682,0.833,6.111-2.246,9.006
		c-3.078,2.896-6.379,2.357-8.278,1.449c-1.898-0.908-5.436-3.356-4.887-7.802c0.55-4.446-0.096-3.307-0.863-2.805
		c-0.852,0.556-3.751,6.831,0.383,13.481c2.958,4.76,7.716,4.645,11.592,3.326c1.627,4.291,10.058,17.485,16.964,26.386
		c0.595-0.376,1.241-0.643,1.807-0.826c-6.758-8.646-15.282-22.096-16.881-26.319c0.793-0.369,1.523-0.764,2.146-1.15
		c3.836-2.38,5.667-7.703,4.448-13.31C173.893,253.391,170.076,253.61,169.441,253.604z"/>
	<path fill="#5281A5" d="M185.191,302.418c-3.738,2.571-8.34,5.449-11.482,3.355l-0.001-0.004c-0.213-0.165-0.421-0.334-0.617-0.506
		c-2.161-1.908-2.796-1.145-2.288,0.762c0.508,1.907,3.688,7.121,9.409,8.901c5.275,1.641,8.552,0.426,11.825-0.51
		c0.89-0.254,1.78-3.179,2.289-6.357c0.509-3.179-0.509-6.103-3.433-7.248C189.655,300.329,186.232,301.703,185.191,302.418z"/>
	<path fill="#6F844C" d="M138.251,269.279c4.451-0.508,6.867,3.052,7.756,4.958c0.891,1.908,1.399,5.214-1.525,8.265
		c-2.925,3.052-6.357,3.434-9.028,2.163c-2.67-1.272-3.942-2.163-3.942-1.526c0,0.635-0.254,4.45,5.341,5.721
		s10.935-0.509,13.352-4.323c0.392-0.619,0.794-1.345,1.169-2.134c5.913,2.301,11.743,4.964,15.973,10.177
		c2.867,3.534,4.924,7.381,7.007,11.212l2.113-0.388c-2.278-4.164-4.473-8.359-7.62-12.208c-4.43-5.418-10.513-8.264-16.697-10.676
		c1.354-3.863,1.514-8.62-3.218-11.622c-6.612-4.196-12.914-1.355-13.479-0.509C134.945,269.152,133.802,269.787,138.251,269.279z"
		/>
	<path fill="#5281A5" d="M274.35,286.393c0,0,1.145-1.019,3.305-3.052c2.163-2.035,4.069-2.543,5.341-2.417
		c1.271,0.128,2.034,0.51,1.018-0.636c0,0-1.4-1.78-1.4-3.941c0-2.161,0-3.56,0-3.56c-1.021,0.084-6.606-0.681-9.382,2.565
		c-0.39,0.559-0.712,1.212-0.917,2.012C270.663,283.85,274.35,286.393,274.35,286.393z"/>
	<path fill="#6F844C" d="M262.41,261.865c-2.619,0.004-6.518,2.471-8.916,4.125c-2.397,1.653-0.714,2.078,4.194,1.901
		c4.907-0.175,8.133-2.978,8.349-3.724c0.22-0.746,0.812-0.437,1.807,0.672c0.998,1.107,3.062,3.741,4.37,5.484
		c1.306,1.745,2.457,1.418,1.306-0.158c-1.147-1.577-1.787-2.316-2.973-3.793c-1.184-1.476-2.362-2.854-1.903-3.253
		c0.461-0.399,2.139-2.269,3.673-6.905c1.535-4.637-1.928-8.111-2.3-9.003c-0.371-0.891-1.379-0.575-1.289,0.156
		c0.093,0.73-0.058,1.258-1.001,4.729c-0.942,3.47,0.206,8.269-0.103,8.966c-0.307,0.698-1.01,0.728-1.533,0.187
		c-0.521-0.543-2.371-2.23-3.167-2.896c-0.8-0.669-2.913-2.174-2.913-2.174s1.117-0.554,2.462-5.017
		c1.347-4.464-2.199-9.488-2.763-10.677c-0.564-1.191-1.03-0.715-1.084-0.533c-0.055,0.184-1.288,2.603-1.648,7.051
		c-0.362,4.45,1.712,8.212,1.635,8.268c-0.075,0.056-1.22-0.776-2.756-1.708c-1.535-0.933-3.064-1.725-3.064-1.725
		s0.94-0.98,1.265-5.215c0.326-4.235-4.235-7.247-4.941-7.875c-0.705-0.627-1.467-1.729-1.372,2.523
		c0.098,4.254,3.405,7.222,3.653,8.2c0.249,0.976-0.273,1.49-0.719,1.266c-0.445-0.226-0.847-0.42-1.94-0.943
		c-0.898-0.433-2.904-1.457-3.583-1.804c-0.144-0.075-0.249-0.249-0.284-0.462c-0.083-0.494-0.253-1.428-0.469-2.17
		c-0.218-0.755-0.833-1.844-1.171-2.409c-0.806-1.35-1.931-1.005-1.233,0.317c0.352,0.663,1.228,2.327,1.343,2.647
		c0.145,0.404,0.385,1.688-0.865,1.184c-1.25-0.503-1.967-0.76-3.944-1.49c-1.979-0.732-2.272,0.426-0.715,0.977
		c1.555,0.55,3.314,1.235,4.069,1.529c0.754,0.295,0.307,0.76,0.307,0.76s-2.36,1.368-3.053,1.743
		c-0.695,0.377-0.452,1.54,0.773,1.007c1.225-0.532,2.737-1.671,3.532-2.131c0.797-0.462,0.757-0.441,1.834,0.017
		c1.076,0.458,3.772,1.715,4.317,1.982c0.545,0.264-2.181,0.028-5.663,2.023c-3.48,1.997-3.502,4.412-4.69,6.713
		c-1.189,2.302,1.978,0.748,6.015-1.419c4.036-2.169,5.163-4.925,5.741-5.32c0.582-0.396,1.05-0.731,1.632-0.418
		c0.579,0.312,3.159,1.811,3.929,2.284c0.77,0.475,1.043,0.659-3.059,1.397c-4.099,0.737-7.7,4.822-8.39,6.479
		c-0.69,1.657,1.132,1.122,5.101,0.114c3.967-1.006,7.829-4.62,8.245-5.45c0.414-0.829,0.91-0.727,1.65-0.201
		c0.742,0.528,2.638,2.077,3.796,3.104C265.066,261.828,265.029,261.864,262.41,261.865z"/>
	<path fill="#5281A5" d="M235.334,257.932c2.016-0.244,3.449-2.107,3.2-4.16c-0.25-2.053-2.087-3.519-4.102-3.275
		c-2.017,0.246-3.45,2.11-3.201,4.162C231.48,256.711,233.318,258.177,235.334,257.932z M234.096,253.118
		c0.89-0.108,1.691,0.433,1.785,1.207c0.095,0.775-0.553,1.492-1.444,1.6c-0.892,0.108-1.692-0.432-1.786-1.208
		C232.557,253.943,233.203,253.226,234.096,253.118z"/>
	<path fill="#5281A5" d="M230.142,246.458c1.465,1.405,3.814,1.335,5.245-0.158c1.432-1.49,1.404-3.842-0.062-5.247
		c-1.465-1.406-3.815-1.336-5.246,0.156C228.648,242.701,228.674,245.049,230.142,246.458z M230.93,242.344
		c0.54-0.562,1.504-0.515,2.154,0.107c0.648,0.621,0.734,1.581,0.195,2.146c-0.542,0.562-1.507,0.515-2.153-0.107
		C230.478,243.868,230.39,242.908,230.93,242.344z"/>
	<path fill="#5281A5" d="M237.756,237.425c-0.038,2.028,1.605,3.708,3.674,3.749c2.066,0.041,3.776-1.575,3.814-3.604
		c0.038-2.032-1.606-3.71-3.675-3.749C239.503,233.779,237.794,235.392,237.756,237.425z M241.316,235.216
		c0.78,0.014,1.396,0.753,1.38,1.654c-0.019,0.898-0.663,1.612-1.444,1.598c-0.781-0.016-1.401-0.757-1.382-1.655
		C239.888,235.914,240.533,235.199,241.316,235.216z"/>
	<path fill="#CA982B" d="M321.433,187.055c0.741,0.459,1.519,0.735,2.263,0.859c-0.005,0.124-0.02,0.248-0.02,0.374
		c0,0.987,0.195,1.927,0.541,2.799c-0.729,0.169-1.481,0.489-2.188,0.987c-2.108,1.489-2.983,3.88-1.951,5.339
		c1.029,1.462,3.575,1.437,5.686-0.051c0.906-0.642,1.567-1.449,1.964-2.278c0.843,0.479,1.777,0.819,2.775,0.988
		c-0.033,0.912,0.175,1.925,0.672,2.906c1.168,2.303,3.408,3.515,5.002,2.707c1.595-0.808,1.939-3.331,0.771-5.634
		c-0.193-0.38-0.422-0.717-0.666-1.034c0.868-0.512,1.626-1.171,2.242-1.945c0.423,0.144,0.866,0.261,1.345,0.316
		c2.564,0.297,4.812-0.901,5.018-2.678c0.206-1.776-1.707-3.457-4.271-3.753c-0.18-0.021-0.351-0.017-0.524-0.024
		c-0.192-1.063-0.604-2.054-1.191-2.926c0.868-0.214,1.77-0.674,2.567-1.392c1.922-1.727,2.509-4.204,1.313-5.533
		c-1.196-1.33-3.721-1.008-5.643,0.718c-1.063,0.959-1.703,2.146-1.868,3.242c-0.726-0.304-1.503-0.509-2.316-0.603
		c0.28-1.25-0.141-2.864-1.252-4.239c-1.623-2.008-4.066-2.725-5.457-1.602c-1.391,1.124-1.201,3.663,0.422,5.671
		c0.365,0.451,0.773,0.826,1.201,1.141c-0.623,0.339-1.196,0.75-1.704,1.226c-0.371-0.396-0.811-0.767-1.315-1.082
		c-2.192-1.361-4.736-1.233-5.68,0.285C318.223,183.36,319.238,185.695,321.433,187.055z M331.946,181.325
		c4.021,0,7.279,3.117,7.279,6.962c0,3.846-3.26,6.962-7.279,6.962c-4.021,0-7.278-3.117-7.278-6.962
		C324.668,184.442,327.927,181.325,331.946,181.325z"/>
	<ellipse fill="#5281A5" cx="331.946" cy="188.287" rx="5.765" ry="5.514"/>
	<path fill="#CA982B" d="M377.261,284.33c1.694-0.469,2.808-1.801,2.481-2.975c-0.322-1.174-1.961-1.746-3.657-1.277
		c-0.118,0.032-0.226,0.079-0.339,0.118c-0.394-0.623-0.904-1.142-1.502-1.543c0.494-0.357,0.947-0.878,1.268-1.537
		c0.771-1.582,0.509-3.295-0.586-3.831c-1.094-0.533-2.606,0.316-3.379,1.897c-0.428,0.878-0.527,1.79-0.353,2.526
		c-0.535-0.007-1.079,0.062-1.618,0.211c-0.144-0.86-0.82-1.772-1.875-2.357c-1.539-0.854-3.266-0.681-3.855,0.384
		c-0.59,1.067,0.179,2.622,1.718,3.475c0.348,0.191,0.7,0.324,1.05,0.414c-0.307,0.372-0.562,0.779-0.763,1.209
		c-0.336-0.155-0.706-0.278-1.106-0.347c-1.734-0.298-3.309,0.432-3.516,1.633c-0.207,1.2,1.032,2.417,2.767,2.714
		c0.586,0.101,1.146,0.076,1.647-0.036c0.028,0.08,0.052,0.161,0.083,0.241c0.252,0.623,0.618,1.167,1.061,1.629
		c-0.419,0.293-0.812,0.688-1.131,1.184c-0.951,1.479-0.894,3.213,0.134,3.872c1.023,0.659,2.626-0.007,3.578-1.488
		c0.409-0.637,0.62-1.317,0.658-1.941c0.652,0.087,1.33,0.062,2.005-0.086c0.213,0.583,0.604,1.171,1.168,1.665
		c1.328,1.154,3.052,1.348,3.852,0.429c0.8-0.917,0.373-2.6-0.953-3.756c-0.219-0.19-0.45-0.346-0.686-0.483
		c0.416-0.545,0.729-1.155,0.918-1.801C376.633,284.457,376.943,284.417,377.261,284.33z M372.731,287.532
		c-2.54,1.029-5.396-0.107-6.379-2.536c-0.983-2.429,0.275-5.232,2.815-6.26c2.54-1.028,5.396,0.106,6.379,2.535
		C376.532,283.701,375.271,286.503,372.731,287.532z"/>
	
		<ellipse transform="matrix(-0.9269 0.3754 -0.3754 -0.9269 821.0659 406.2888)" fill="#5281A5" cx="370.958" cy="283.12" rx="3.928" ry="3.758"/>
	<path fill="#CA982B" d="M383.45,308.064c0.8-0.919,0.373-2.6-0.954-3.756c-0.219-0.191-0.45-0.345-0.687-0.483
		c0.416-0.544,0.729-1.155,0.918-1.801c0.307-0.018,0.615-0.058,0.932-0.146c1.696-0.468,2.809-1.8,2.482-2.974
		c-0.321-1.175-1.961-1.747-3.655-1.279c-0.119,0.033-0.228,0.079-0.34,0.12c-0.394-0.623-0.906-1.143-1.5-1.544
		c0.492-0.357,0.944-0.878,1.266-1.537c0.771-1.581,0.51-3.295-0.586-3.83c-1.094-0.534-2.607,0.314-3.379,1.896
		c-0.429,0.879-0.527,1.791-0.354,2.527c-0.534-0.008-1.079,0.062-1.618,0.21c-0.142-0.86-0.819-1.772-1.874-2.357
		c-1.54-0.854-3.266-0.681-3.855,0.384c-0.592,1.066,0.178,2.62,1.717,3.474c0.346,0.192,0.701,0.324,1.051,0.414
		c-0.308,0.374-0.562,0.78-0.762,1.21c-0.337-0.156-0.708-0.279-1.109-0.347c-1.731-0.299-3.309,0.433-3.514,1.633
		c-0.207,1.2,1.032,2.416,2.766,2.714c0.584,0.102,1.146,0.076,1.648-0.036c0.028,0.08,0.051,0.161,0.084,0.241
		c0.252,0.624,0.618,1.167,1.059,1.629c-0.419,0.293-0.812,0.688-1.131,1.183c-0.951,1.48-0.891,3.214,0.133,3.874
		c1.025,0.658,2.628-0.008,3.579-1.488c0.408-0.638,0.62-1.317,0.657-1.941c0.654,0.087,1.332,0.062,2.006-0.086
		c0.213,0.583,0.604,1.172,1.169,1.664C380.925,308.791,382.649,308.983,383.45,308.064z M379.133,305.083
		c-2.54,1.029-5.396-0.107-6.379-2.536c-0.984-2.429,0.276-5.231,2.816-6.259c2.539-1.03,5.395,0.106,6.379,2.535
		C382.933,301.251,381.671,304.054,379.133,305.083z"/>
	
		<ellipse transform="matrix(-0.9268 0.3755 -0.3755 -0.9268 839.9661 437.7025)" fill="#5281A5" cx="377.337" cy="300.691" rx="3.928" ry="3.758"/>
	<path fill="#CA982B" d="M372.076,317.076c1.577-0.781,2.418-2.299,1.875-3.39c-0.541-1.093-2.257-1.343-3.833-0.563
		c-0.11,0.054-0.208,0.121-0.31,0.181c-0.505-0.536-1.105-0.95-1.767-1.231c0.416-0.444,0.762-1.042,0.953-1.749
		c0.458-1.698-0.125-3.333-1.301-3.649c-1.18-0.317-2.502,0.802-2.959,2.502c-0.257,0.944-0.181,1.859,0.131,2.547
		c-0.526,0.096-1.047,0.265-1.547,0.513c-0.304-0.818-1.144-1.584-2.288-1.959c-1.673-0.547-3.335-0.049-3.714,1.109
		c-0.377,1.158,0.671,2.539,2.343,3.085c0.377,0.123,0.751,0.186,1.108,0.207c-0.228,0.425-0.401,0.874-0.517,1.333
		c-0.361-0.089-0.748-0.139-1.155-0.13c-1.759,0.035-3.165,1.05-3.142,2.269c0.025,1.218,1.471,2.178,3.229,2.142
		c0.593-0.012,1.141-0.142,1.611-0.347c0.044,0.072,0.08,0.148,0.127,0.219c0.365,0.565,0.829,1.03,1.351,1.4
		c-0.355,0.367-0.668,0.83-0.888,1.375c-0.653,1.634-0.268,3.324,0.864,3.777c1.132,0.453,2.577-0.504,3.231-2.138
		c0.28-0.703,0.358-1.411,0.278-2.032c0.658-0.037,1.318-0.188,1.952-0.464c0.32,0.533,0.813,1.037,1.463,1.413
		c1.522,0.884,3.252,0.747,3.862-0.307c0.612-1.054-0.125-2.624-1.648-3.508c-0.25-0.146-0.506-0.254-0.763-0.344
		c0.305-0.616,0.493-1.273,0.562-1.944C371.484,317.32,371.783,317.222,372.076,317.076z M368.238,321.079
		c-2.299,1.49-5.317,0.917-6.745-1.281c-1.427-2.2-0.718-5.19,1.581-6.681c2.299-1.49,5.315-0.916,6.744,1.282
		C371.244,316.597,370.536,319.587,368.238,321.079z"/>
	
		<ellipse transform="matrix(-0.8391 0.5439 -0.5439 -0.8391 844.9726 384.261)" fill="#5281A5" cx="365.665" cy="317.078" rx="3.929" ry="3.758"/>
	<ellipse fill="#5281A5" cx="528.963" cy="340.403" rx="5.756" ry="9.35"/>
	
		<ellipse transform="matrix(-0.941 -0.3384 0.3384 -0.941 979.7758 867.2988)" fill="#5281A5" cx="565.486" cy="348.247" rx="3.923" ry="6.372"/>
	
		<ellipse transform="matrix(-0.902 -0.4318 0.4318 -0.902 940.7746 916.473)" fill="#5281A5" cx="574.412" cy="351.453" rx="3.036" ry="4.935"/>
	<path fill="#5281A5" d="M581.162,353.133c-1.365,0-2.461,1.096-2.461,2.462c0,1.365,1.096,2.46,2.461,2.46s2.463-1.095,2.463-2.46
		C583.625,354.229,582.527,353.133,581.162,353.133z"/>
	<circle fill="#5281A5" cx="585.777" cy="360.518" r="1.846"/>
	<ellipse fill="#5281A5" cx="528.963" cy="320.11" rx="5.756" ry="9.351"/>
	
		<ellipse transform="matrix(0.941 -0.3384 0.3384 0.941 -72.3116 209.8064)" fill="#5281A5" cx="565.514" cy="312.274" rx="3.919" ry="6.372"/>
	
		<ellipse transform="matrix(0.902 -0.4318 0.4318 0.902 -77.1462 278.3027)" fill="#5281A5" cx="574.381" cy="309.064" rx="3.038" ry="4.935"/>
	<path fill="#5281A5" d="M580.781,307.633c1.365,0,2.461-1.097,2.461-2.462c0-1.367-1.096-2.462-2.461-2.462
		s-2.461,1.095-2.461,2.462C578.32,306.537,579.416,307.633,580.781,307.633z"/>
	<circle fill="#5281A5" cx="585.396" cy="300.249" r="1.846"/>
	<path fill="#5281A5" d="M547.441,316.923c-1.033-4.426-4.078-7.498-6.802-6.861c-2.725,0.636-4.095,4.739-3.061,9.164
		c0.39,1.67,1.065,3.146,1.903,4.303c-1.014,1.451-1.79,3.359-2.135,5.518c-0.561,3.515,0.16,6.762,1.689,8.607
		c-0.631,1.037-1.141,2.27-1.459,3.632c-1.034,4.425,0.336,8.529,3.061,9.165c2.724,0.637,5.769-2.436,6.802-6.861
		c0.675-2.887,0.321-5.629-0.759-7.368c0.964-1.431,1.699-3.278,2.03-5.361c0.518-3.23-0.056-6.232-1.337-8.128
		C547.875,321.102,547.939,319.053,547.441,316.923z"/>
	<path fill="#5281A5" d="M561.795,329.546c-0.248-3.494-1.807-6.372-3.783-7.423c1.295-1.439,1.797-4.188,1.117-7.097
		c-0.91-3.895-3.59-6.598-5.986-6.038c-2.396,0.56-3.602,4.171-2.691,8.065c0.609,2.614,2.019,4.685,3.603,5.6
		c-1.61,1.439-2.593,4.341-2.358,7.614c0.23,3.246,1.594,5.959,3.371,7.171c-1.974,0.485-3.878,2.861-4.614,6.021
		c-0.909,3.894,0.296,7.505,2.691,8.065c2.396,0.56,5.076-2.144,5.986-6.039c0.734-3.148,0.088-6.108-1.453-7.424
		C560.283,337.583,562.105,333.89,561.795,329.546z"/>
	<path fill="#5281A5" d="M573.811,328.339c-0.286-3.99-2.508-7.081-4.961-6.906c-2.457,0.175-4.215,3.551-3.932,7.54
		c0.285,3.989,2.508,7.081,4.961,6.906C572.334,335.703,574.094,332.327,573.811,328.339z"/>
	
		<ellipse transform="matrix(-0.9825 0.1862 -0.1862 -0.9825 1211.5522 541.1285)" fill="#5281A5" cx="580.366" cy="327.457" rx="3.921" ry="6.372"/>
	
		<ellipse transform="matrix(-0.9587 0.2843 -0.2843 -0.9587 1247.6271 469.8901)" fill="#5281A5" cx="589.715" cy="325.481" rx="3.036" ry="4.934"/>
	<path fill="#5281A5" d="M597.311,320.216c-1.35-0.215-2.604,0.694-2.817,2.043c-0.215,1.348,0.692,2.604,2.043,2.819
		c1.348,0.214,2.602-0.695,2.817-2.043C599.568,321.686,598.658,320.431,597.311,320.216z"/>
	<circle fill="#5281A5" cx="602.256" cy="318.512" r="1.847"/>
	<path fill="#CA982B" d="M523.998,306.496c-0.441-0.916-1.527-2.288,1.525-2.034c3.051,0.254,5.086-3.814,2.797-5.849
		c-0.666-0.592-2.225-1.019-4.097-1.326c-0.585-0.096-0.606-0.488,0.023-0.636c0.437-0.103,0.881-0.214,1.328-0.339
		c6.812-1.893,1.876-7.748-0.472-7.606c-1.014,0.062-2.693,0.549-1.307-2.18c1.387-2.73-1.613-6.149-4.361-4.798
		c-0.658,0.324-1.44,1.25-2.25,2.47c-0.709,1.068-0.852,0.754-0.323-0.942c2.095-6.753-5.5-5.771-6.651-3.721
		c-0.497,0.887-0.996,2.563-2.542-0.08c-1.545-2.644-6.044-1.971-6.394,1.071c-0.082,0.709,0.252,1.829,0.812,3.126
		c0.539,1.243,0.389,1.996-0.644,0.956c-0.42-0.422-0.858-0.844-1.319-1.263c-5.238-4.75-7.554,2.552-6.18,4.458
		c0.594,0.826,1.901,1.985-1.146,2.271c-3.049,0.284-4.338,4.647-1.727,6.248c0.586,0.36,1.679,0.53,3.02,0.577
		c1.342,0.046,1.361,0.324-0.354,0.785c-6.827,1.834-1.94,7.732,0.405,7.609c1.017-0.053,2.698-0.525,1.29,2.192
		c-1.41,2.718,1.561,6.163,4.32,4.834c0.383-0.184,0.809-0.574,1.258-1.101c-0.471,4.722,5.812,3.999,6.918,2.197
		c0.533-0.866,1.101-2.522,2.537,0.182c1.438,2.705,5.961,2.214,6.435-0.812c0.11-0.714-0.188-1.86-0.705-3.195
		c-0.47-1.21-0.421-1.615,0.457-0.422c0.155,0.211,0.312,0.422,0.477,0.632C521.454,315.396,525.016,308.616,523.998,306.496z
		 M526.199,291.474c0.742,1.431,0.127,1.891-1.421,2.602c-1.548,0.712-4.196,0.89-5.128,1.143c-0.935,0.253-1.917-0.251-0.57-1.139
		C519.08,294.08,525.457,290.042,526.199,291.474z M516.52,290.002c0,0,3.414-6.732,4.783-5.881
		c1.371,0.851,1.078,1.561,0.109,2.964c-0.965,1.403-3.148,2.91-3.82,3.603C516.918,291.383,515.816,291.453,516.52,290.002z
		 M512.479,279.907c1.604,0.151,1.658,0.916,1.421,2.603c-0.239,1.688-1.521,4.01-1.814,4.932c-0.293,0.921-1.248,1.476-1.267-0.137
		C510.817,287.304,510.871,279.756,512.479,279.907z M504.301,280.378c1.438-0.728,1.892-0.108,2.588,1.446
		c0.697,1.555,0.849,4.204,1.094,5.14c0.242,0.935-0.271,1.914-1.146,0.559C506.837,287.523,502.861,281.107,504.301,280.378z
		 M495.551,285.673c0.814-1.393,1.531-1.118,2.961-0.189c1.431,0.929,2.992,3.072,3.705,3.726c0.712,0.654,0.812,1.755-0.66,1.091
		C501.557,290.3,494.738,287.064,495.551,285.673z M493.146,294.419c-0.199-1.599,0.536-1.817,2.234-1.948
		c1.698-0.13,4.243,0.622,5.206,0.709c0.963,0.086,1.71,0.901,0.141,1.266C500.729,294.446,493.346,296.02,493.146,294.419z
		 M493.785,303.202c-0.729-1.438-0.109-1.893,1.442-2.591c1.556-0.699,4.203-0.855,5.14-1.101c0.936-0.244,1.914,0.268,0.561,1.145
		C500.928,300.656,494.518,304.641,493.785,303.202z M503.406,304.049c0,0-3.562,6.657-4.912,5.776
		c-1.354-0.879-1.043-1.583-0.047-2.965c0.996-1.383,3.212-2.842,3.899-3.522C503.035,302.659,504.137,302.613,503.406,304.049z
		 M505.336,313.178c-1.598-0.215-1.619-0.982-1.312-2.659c0.306-1.675,1.683-3.944,2.011-4.854c0.33-0.909,1.308-1.424,1.26,0.188
		C507.293,305.854,506.936,313.394,505.336,313.178z M514.488,312.368c-1.399,0.801-1.886,0.205-2.659-1.313
		c-0.774-1.517-1.062-4.155-1.353-5.077c-0.29-0.921,0.174-1.925,1.116-0.617C511.594,305.361,515.889,311.567,514.488,312.368z
		 M509.82,302.523c-3.377,0-6.115-2.738-6.115-6.115c0-3.376,2.738-6.114,6.115-6.114c3.375,0,6.111,2.738,6.111,6.114
		C515.933,299.785,513.195,302.523,509.82,302.523z M521.715,308.666c-1.146,1.136-1.767,0.685-2.909-0.579
		c-1.142-1.265-2.101-3.74-2.62-4.554c-0.52-0.815-0.334-1.905,0.918-0.885C517.104,302.648,522.861,307.53,521.715,308.666z
		 M519.154,300.452c-0.935-0.254-1.525-1.187,0.084-1.272c0,0,7.545-0.254,7.46,1.356c-0.084,1.611-0.849,1.695-2.544,1.527
		C522.461,301.893,520.086,300.707,519.154,300.452z"/>
	<circle fill="#5281A5" cx="509.82" cy="296.409" r="4.237"/>
	<path fill="#6F844C" d="M517.11,342.862c-0.342-3.73-6.443-7.799-6.443-7.799s3.392-2.035,2.034-4.748
		c-1.355-2.712-7.459-4.068-7.459-4.068s0.678-4.069-0.678-6.781c-1.356-2.712-9.834-2.374-9.834-2.374s-1.019-1.018-1.694-3.729
		c-0.679-2.713-4.173-6.484-7.46-7.799c-3.393-1.355-2.713,0-0.341,1.696c2.375,1.694,3.729,2.713,5.088,5.764
		c1.354,3.051,0,4.747,0,4.747s-5.426,4.069-5.088,9.495c0.341,5.425,2.375,8.477,2.375,8.477s-3.053,3.729-0.339,7.121
		c2.712,3.39,6.44,3.73,6.44,3.73s-1.354,3.729,1.019,6.441c2.375,2.713,8.139,2.034,8.139,2.034s2.713,7.46,7.459,6.104
		c4.746-1.355,2.373-10.173,2.373-10.173S517.448,346.592,517.11,342.862z M508.373,351.7c-0.285,0.206-0.673,0.128-0.854-0.156
		c-6.671-9.385-14.168-19.338-14.764-31.284c0-0.336,0.284-0.619,0.621-0.619c0.336,0,0.62,0.283,0.62,0.619
		c0.619,11.738,8.066,21.381,14.556,30.585C508.733,351.13,508.658,351.518,508.373,351.7z"/>
	<path fill="#5281A5" d="M484.644,313.511c0,0-3.845-1.584-6.994-0.12c-0.982,0.457-1.851,1.007-2.56,1.594
		c-0.344-0.586-0.748-1.138-1.19-1.66c1.015-0.58,2.079-1.483,3.022-2.667c2.167-2.718,1.532-6.827,1.532-6.827
		s-4.147,0.299-6.313,3.017c-0.938,1.175-1.575,2.406-1.916,3.518c-0.702-0.381-1.446-0.702-2.229-0.958
		c0.864-0.996,1.611-2.561,2.004-4.403c0.725-3.4-1.678-6.794-1.678-6.794s-3.579,2.12-4.302,5.52
		c-0.407,1.912-0.35,3.709,0.074,4.98c-0.187-0.007-0.37-0.025-0.56-0.025c-0.639,0-1.264,0.056-1.88,0.136
		c0.419-1.27,0.477-3.061,0.069-4.964c-0.724-3.4-4.301-5.519-4.301-5.519s-2.401,3.393-1.679,6.793
		c0.432,2.022,1.289,3.711,2.26,4.677c-0.605,0.258-1.194,0.547-1.748,0.883c-0.174-1.337-0.905-2.989-2.145-4.543
		c-2.166-2.718-6.312-3.017-6.312-3.017s-0.636,4.109,1.531,6.827c1.264,1.587,2.748,2.688,4.031,3.136
		c-0.539,0.604-1.012,1.257-1.412,1.952c-0.787-1.041-2.121-2.087-3.789-2.863c-3.153-1.465-6.996,0.118-6.996,0.118
		s1.267,3.961,4.419,5.426c1.852,0.86,3.682,1.183,5.032,1.003c-0.104,0.601-0.172,1.21-0.172,1.836c0,0.203,0.021,0.4,0.033,0.6
		c-1.216-0.174-2.732-0.062-4.312,0.385c-3.344,0.952-5.217,4.664-5.217,4.664s3.547,2.169,6.891,1.218
		c1.549-0.441,2.877-1.127,3.814-1.896c0.201,0.391,0.424,0.77,0.666,1.138c-1.293,0.439-2.794,1.549-4.072,3.151
		c-2.165,2.719-1.53,6.828-1.53,6.828s4.146-0.299,6.312-3.018c1.071-1.344,1.775-2.77,2.061-3.997
		c0.888,0.681,1.878,1.25,2.944,1.7c-1.137,0.773-2.294,2.294-3.084,4.229c-1.313,3.219,0.451,6.983,0.451,6.983
		s3.896-1.454,5.209-4.672c0.88-2.157,1.076-4.268,0.643-5.621c0.646,0.104,1.31,0.164,1.983,0.178
		c-0.565,1.276-0.692,3.266-0.237,5.399c0.726,3.4,4.302,5.518,4.302,5.518s2.402-3.393,1.679-6.792
		c-0.406-1.913-1.194-3.531-2.102-4.518c0.816-0.196,1.6-0.46,2.344-0.787c0.347,1.097,0.979,2.306,1.898,3.461
		c2.166,2.717,6.312,3.016,6.312,3.016s0.636-4.108-1.529-6.826c-0.816-1.026-1.728-1.855-2.617-2.436
		c0.307-0.311,0.594-0.634,0.863-0.973c0.756,0.428,1.637,0.802,2.606,1.078c3.345,0.951,6.892-1.218,6.892-1.218
		s-1.874-3.71-5.218-4.663c-0.672-0.191-1.33-0.318-1.962-0.392c0.094-0.569,0.155-1.146,0.155-1.738
		c0-0.206-0.022-0.406-0.034-0.609c1.106-0.1,2.363-0.432,3.633-1.021C483.377,317.471,484.644,313.511,484.644,313.511z
		 M463.587,331.104c-6.456,0-11.688-4.75-11.688-10.609c0-5.858,5.232-10.609,11.688-10.609c6.454,0,11.688,4.751,11.688,10.609
		C475.273,326.355,470.041,331.104,463.587,331.104z"/>
	<ellipse fill="#CA982B" cx="463.587" cy="320.495" rx="9.258" ry="8.403"/>
	<path fill="#5281A5" d="M470.064,277.036c0,3.307,2.682,5.989,5.987,5.989c2.124,0,3.984-1.11,5.048-2.778
		c0.352,0.075,0.702,0.147,1.054,0.243c1.693,0.467,3.644,0.698,5.087,1.675c-0.049,0.171-0.084,0.349-0.084,0.536
		c0,1.072,0.87,1.942,1.94,1.942c1.074,0,1.943-0.87,1.943-1.942c0-1.073-0.869-1.943-1.943-1.943c-0.539,0-1.026,0.222-1.379,0.578
		c-0.399-0.221-0.824-0.404-1.252-0.566c-1.33-0.516-2.64-0.858-4.062-1.195c-0.286-0.066-0.567-0.115-0.852-0.171
		c0.312-0.727,0.488-1.526,0.488-2.367c0-0.529-0.076-1.041-0.205-1.53c2.416-0.445,4.9-0.56,7.378-0.626
		c0.427,0.968,1.391,1.646,2.518,1.646c1.52,0,2.75-1.231,2.75-2.751c0-1.521-1.23-2.751-2.75-2.751
		c-1.521,0-2.753,1.23-2.753,2.751c0,0.065,0.016,0.128,0.021,0.194c-2.508,0.064-5.022,0.197-7.465,0.663
		c-0.344-0.786-0.855-1.479-1.482-2.045c1.364-1.547,2.558-3.26,3.722-4.982c0.237,0.078,0.485,0.13,0.75,0.13
		c1.34,0,2.427-1.087,2.427-2.428c0-1.341-1.087-2.428-2.427-2.428c-1.343,0-2.429,1.087-2.429,2.428
		c0,0.725,0.324,1.368,0.828,1.813c-1.02,1.5-1.908,3.083-3.144,4.502c-0.132,0.152-0.274,0.285-0.409,0.43
		c-0.951-0.634-2.091-1.004-3.316-1.004C472.746,271.047,470.064,273.729,470.064,277.036z"/>
	<path fill="#5281A5" d="M444.606,249.125c0.187-0.001,0.361-0.038,0.533-0.089c0.99,1.433,1.24,3.38,1.722,5.071
		c0.102,0.35,0.177,0.699,0.254,1.05c-1.657,1.079-2.748,2.95-2.729,5.074c0.032,3.308,2.735,5.963,6.042,5.933
		c3.311-0.031,5.963-2.738,5.935-6.044c-0.014-1.226-0.394-2.363-1.035-3.307c0.145-0.136,0.276-0.279,0.427-0.413
		c1.407-1.249,2.983-2.151,4.474-3.185c0.448,0.499,1.095,0.818,1.818,0.812c1.342-0.013,2.419-1.109,2.404-2.45
		c-0.011-1.341-1.107-2.417-2.448-2.406c-1.341,0.012-2.417,1.11-2.405,2.451c0.004,0.262,0.058,0.511,0.139,0.748
		c-1.711,1.181-3.413,2.388-4.948,3.768c-0.57-0.624-1.27-1.127-2.059-1.464c0.441-2.448,0.553-4.963,0.595-7.47
		c0.063,0.004,0.127,0.018,0.191,0.017c1.521-0.014,2.739-1.258,2.728-2.776c-0.016-1.52-1.258-2.74-2.777-2.726
		c-1.52,0.013-2.739,1.258-2.725,2.777c0.012,1.125,0.694,2.083,1.668,2.499c-0.043,2.479-0.135,4.966-0.558,7.385
		c-0.49-0.125-1.002-0.196-1.53-0.191c-0.843,0.009-1.642,0.19-2.363,0.512c-0.061-0.283-0.111-0.564-0.183-0.851
		c-0.348-1.42-0.702-2.725-1.229-4.051c-0.167-0.428-0.354-0.849-0.579-1.247c0.354-0.354,0.571-0.846,0.565-1.386
		c-0.011-1.072-0.889-1.934-1.959-1.924c-1.074,0.01-1.937,0.888-1.926,1.961C442.656,248.273,443.532,249.134,444.606,249.125z"/>
	<path fill="#5281A5" d="M424.862,325.752c0,0,8.773-1.526,7.501-7.121c-0.623-2.745-5.086-1.527-7.629-1.399
		c-2.542,0.127-3.179,0.255-3.179,0.255s-0.764,4.831-3.307,5.594s-2.417,2.035-0.635,4.451c1.778,2.416,5.084,6.23,6.864,4.195
		C426.261,329.692,424.862,325.752,424.862,325.752z"/>
	<path fill="#5281A5" d="M414.295,327.644c-2.67-1.271-6.611-1.271-9.662,4.704c-3.053,5.976,4.068,8.52,8.646,11.317
		c4.576,2.797,4.32,3.814,5.594,6.993c1.271,3.18,1.652,2.036,2.289-1.144c0.637-3.18,0.891-10.426,0.127-13.479
		C420.525,332.982,416.22,328.561,414.295,327.644z"/>
	<path fill="#5281A5" d="M436.195,316.683c-0.638,0.127-1.781,0.509-1.781,0.509s0.764,2.416-0.254,4.704
		c-1.018,2.29-4.831,4.451-4.831,4.451s-0.509,2.542-1.78,4.705c-1.271,2.161-3.94,3.178-3.94,3.178s0.508,3.051,0.508,3.941
		c0,0.89-0.255,2.798-0.255,2.798s3.561,0.127,6.738-2.798c3.181-2.924,1.907-7.501,1.907-7.501s5.979-3.179,7.249-6.74
		c1.271-3.56-1.018-8.646-1.018-8.646S436.83,316.556,436.195,316.683z"/>
	
		<ellipse transform="matrix(0.8253 0.5646 -0.5646 0.8253 251.5883 -177.806)" fill="#CA982B" cx="413.206" cy="317.772" rx="4.581" ry="7.93"/>
	<path fill="#5281A5" d="M417.221,309.012c1.745,0,0.125-2.867-2.367-3.241c-2.491-0.373-10.094,0.998-12.834,6.232
		c-2.741,5.233,0.373,11.464,2.367,13.457c1.994,1.994,2.866-0.624,2.866-0.624s-1.122-0.996-1.37-2.491
		c-0.25-1.496-0.125-4.735,2.49-9.347C410.992,308.389,417.221,309.012,417.221,309.012z"/>
	<path fill="#CA982B" d="M399.068,317.098c0.125-4.61,2.866-8.349,7.479-11.215c4.612-2.866,10.467-0.623,10.467-0.623
		s1.494-2.493,2.367-3.615c0.872-1.121,2.243-2.492,2.243-2.492s-1.744-3.365-6.729-3.862c-4.982-0.5-7.477,3.489-7.477,3.489
		s-4.611-1.869-9.096,0.498c-4.486,2.367-3.365,8.349-3.365,8.349s-4.361,0.873-5.731,6.355c-1.369,5.484,3.239,8.848,3.239,8.848
		s-2.493,4.113,1.246,8.598c3.738,4.485,8.473,3.862,8.473,3.862s0.375-2.616,0.623-3.987c0.25-1.371,1.496-3.987,1.496-3.987
		S398.944,321.709,399.068,317.098z"/>
	<path fill="#5281A5" d="M410.768,293.806c1.146-0.637,4.069-0.509,6.359-0.255c2.287,0.255,5.72,4.068,5.72,4.068
		s1.78-0.381,1.526-3.56c-0.254-3.179-3.434-6.358-7.756-6.739c-4.324-0.382-7.756,3.179-9.027,5.339
		c-1.272,2.162-0.51,3.942-0.51,3.942S409.623,294.441,410.768,293.806z"/>
	<path fill="#5281A5" d="M392.711,293.207c-3.812,3.687-1.652,10.172-1.016,11.571c0.635,1.398,1.651,1.526,1.651,1.526
		s0.129-1.144,0.254-3.434c0.128-2.289,2.543-4.323,3.814-5.468c1.272-1.144,7.885-0.889,7.885-0.889s0.126-1.526-0.637-2.417
		C403.902,293.207,396.527,289.519,392.711,293.207z"/>
	<path fill="#5281A5" d="M389.033,321.839c-1.018-0.89-2.797-5.976-2.289-8.265c0.51-2.29,1.653-5.214,3.307-5.723
		c1.652-0.509,1.781-0.762-0.636-0.635c-2.415,0.126-7.884,2.416-8.265,7.247c-0.384,4.832,6.305,8.652,7.628,9.409
		C390.561,324.891,390.051,322.73,389.033,321.839z"/>
	<path fill="#5281A5" d="M399.54,336.97c-2.415-0.254-5.087-1.653-7.374-3.178c-2.289-1.526-3.305-6.231-3.051-7.629
		c0.252-1.399-1.438-1.093-2.162-0.127c-0.382,0.508-2.545,9.028,2.797,11.826c5.34,2.797,8.52,1.78,10.172,1.398
		C401.575,338.878,401.957,337.225,399.54,336.97z"/>
	<path fill="#6F844C" d="M354.785,299.986c-0.451-1.015-0.872-1.927-1.248-2.724c0.79,0.718,1.594,1.422,2.465,2.118
		c2.367,1.896,4.918,3.122,7.416,4.633c0.446,0.308,1.064,0.2,1.381-0.239c0.308-0.446,0.199-1.063-0.24-1.378
		c-2.481-1.511-5.041-2.723-7.399-4.618c-1.742-1.395-3.207-2.822-4.826-4.317c-0.961-0.892-2.025-1.601-3.15-2.188
		c0.987-0.6,2.649-1.631,4.693-2.992c3.329-2.22,5.057-4.193,5.92-7.524c0.863-3.33,1.604-9.99,0.246-10.73
		c-1.354-0.74-7.894,2.59-12.703,8.017c-3.773,4.258-2.388,9.715-1.613,11.875c-1.803-0.505-3.675-0.78-5.524-0.89
		c-0.547-0.03-1.01,0.394-1.033,0.94c-0.022,0.54,0.4,1.002,0.941,1.025c3.252,0.22,6.607,0.895,9.369,2.734
		c-0.904,0.605-6.764,4.806-5.688,11.416c1.165,7.158,4.909,13.467,6.45,13.566c1.543,0.101,4.477-5.924,5.526-9.2
		C356.817,306.233,356.414,303.643,354.785,299.986z M346.834,290.256c0.307-0.935,0.864-2.535,1.367-3.455
		c0.74-1.357,4.688-6.168,6.413-8.387c1.726-2.22,3.208-1.85,1.356,0.493c-1.579,2-6.658,9.566-8.113,11.741
		C347.52,290.509,347.178,290.375,346.834,290.256z M350.615,309.997c-0.273-2.799-1.037-8.974-0.938-10.516
		c0.081-1.245,0.609-3.344,0.81-4.109c0.328,0.244,0.65,0.501,0.961,0.783c0.069,2.758,0.315,11.652,0.578,14.15
		C352.336,313.274,350.889,312.795,350.615,309.997z"/>
	<path fill="#5281A5" d="M329.264,299.52c2.797,0.763,4.831,2.034,4.831,2.034s4.96-4.958,4.07-10.553
		c-1.464-9.199-10.428-8.138-10.428-8.138s-1.78,2.417-3.434,3.561c-1.651,1.144-3.561,1.907-3.561,1.907s3.052,2.417,3.941,4.196
		c0.891,1.78,0.51,4.832,0.382,5.341C324.941,298.376,326.465,298.756,329.264,299.52z"/>
	<path fill="#5281A5" d="M426.986,274.354c7.248,2.035,10.427,3.052,9.408,0.255c-1.018-2.797-5.976-9.155-17.164-8.773
		c-11.19,0.381-16.403,6.485-16.403,6.485s-0.382,4.704-1.018,6.357c-0.637,1.653-2.034,3.434-5.342,4.959
		c-3.306,1.526-5.467,2.29-6.61,2.543c-1.145,0.253-2.16,0.764-0.638,1.145c2.383,0.595,9.792,3.178,16.912-2.67
		C413.254,278.805,419.738,272.32,426.986,274.354z"/>
	<path fill="#5281A5" d="M412.668,247.077c-0.396-1.215-1.639-1.968-2.92-1.701c-0.919,0.19-1.608,0.854-1.887,1.683
		c-0.566-0.798-1.565-1.228-2.586-1.017c-1.378,0.285-2.261,1.628-1.975,3.006c0.285,1.377,1.63,2.26,3.007,1.974
		c0.919-0.19,1.606-0.855,1.886-1.683c0.567,0.797,1.563,1.227,2.586,1.017c0.577-0.12,1.059-0.432,1.414-0.847
		c0.396,1.215,1.637,1.966,2.919,1.701c0.113-0.024,0.22-0.065,0.327-0.103c-0.012,0.063-0.033,0.125-0.038,0.189
		c-0.13,1.303,0.75,2.458,2.001,2.724c-0.377,0.396-0.636,0.908-0.691,1.494c-0.104,1.037,0.431,1.984,1.283,2.464
		c-0.794,0.365-1.381,1.12-1.476,2.054c-0.139,1.399,0.884,2.642,2.282,2.779c1.398,0.139,2.643-0.881,2.78-2.281
		c0.102-1.037-0.433-1.984-1.285-2.463c0.795-0.365,1.383-1.12,1.474-2.054c0.131-1.304-0.751-2.458-2.001-2.725
		c0.375-0.395,0.636-0.906,0.691-1.494c0.139-1.399-0.881-2.641-2.28-2.779c-0.38-0.038-0.745,0.016-1.082,0.133
		c0.055-0.305,0.057-0.623-0.013-0.945c-0.285-1.378-1.628-2.26-3.006-1.974C413.504,246.35,413.021,246.662,412.668,247.077z"/>
	<path fill="#5281A5" d="M422.849,253.96c0,0,1.271,0.763,1.397,1.653c0.127,0.891-0.888,3.56-0.888,3.56s0.888,1.017,0.762,2.163
		c-0.128,1.144-1.398,2.543-1.398,2.543s1.145,0.38,2.796,0.507c1.653,0.127,3.562,1.271,3.562,1.271s0.127,0.255,0.764-0.381
		c0.638-0.636,2.542-2.289,3.688-3.688c1.145-1.399,3.052-4.323,3.052-4.323s-1.78-4.068-7.376-4.578
		C423.612,252.181,422.849,253.96,422.849,253.96z"/>
	<path fill="#5281A5" d="M382.488,260.483c-5.793,7.168-3.148,14.555-2.533,16.932c0.394,1.522,0.893,0.501,1.139-0.645
		c1.243-5.827,3.816-9.973,7.355-11.368c1.647-0.649,6.397-1.713,6.397-1.713s6.062-5.263,6.353-16.455
		c0.289-11.193-6.108-16.1-8.914-17.093c-2.805-0.996-1.762,2.176,0.33,9.406C394.71,246.778,388.278,253.315,382.488,260.483z"/>
	<path fill="#5281A5" d="M401.438,238.028c0,0,1.161,1.898,1.302,3.55c0.14,1.652,0.532,2.793,0.532,2.793s1.388-1.284,2.53-1.42
		c1.144-0.136,2.167,0.745,2.167,0.745s2.663-1.038,3.555-0.919c0.891,0.12,1.663,1.386,1.663,1.386s1.774-0.777,1.222-6.368
		c-0.557-5.59-4.639-7.337-4.639-7.337s-2.908,1.931-4.298,3.086c-1.391,1.156-3.027,3.077-3.657,3.718
		C401.185,237.903,401.438,238.028,401.438,238.028z"/>
	<path fill="#5281A5" d="M418.479,245.019c1.277,0.753,1.294,2.661,1.294,2.661l1.063-0.247c0.562,0.164,1.201,0.478,1.573,1.095
		c0.762,1.272,0.762,3.052,0.762,3.052s2.925-1.272,3.435-1.272c0.509,0,0.764,0,0.764,0s1.017-2.289,2.034-5.975
		c0.434-1.572,0.981-3.559,1.154-5.046c0.26-2.248-0.396-3.052-4.183-2.269c-1.234,0.256-2.605,0.646-3.758,0.974
		c-3.68,1.048-5.96,2.083-5.96,2.083s0.003,0.255,0.007,0.763c0.004,0.51-1.244,3.444-1.244,3.444S417.2,244.267,418.479,245.019z"
		/>
	<path fill="#5281A5" d="M385.56,272.161c-3.688,3.687-3.613,11.983-2.415,12.969c2.16,1.78,7.884-1.398,11.315-2.924
		c3.433-1.526,4.45-4.323,4.704-7.756c0.255-3.434,1.779-6.74,3.18-9.027c1.398-2.289,0.254-2.543-2.288-0.509
		c-2.544,2.034-3.688,2.162-6.104,2.669C391.535,268.093,389.246,268.474,385.56,272.161z"/>
	<path fill="#CA982B" d="M414.875,254.617c-0.371-0.494-0.371-1.603-0.371-1.603s-0.986,0-1.354-0.248
		c-0.371-0.246-1.481-0.987-1.481-0.987s-1.11,0.37-1.479,0.247c-0.371-0.124-1.729-0.124-1.729-0.124s-0.985,0.987-1.479,0.987
		c-0.494,0-2.099,0-2.714-0.863c-0.617-0.864-0.229,0.687-0.862,3.083c-0.77,2.895-4.463,6.382-4.463,8.424
		c0,0.405,1.538-0.573,4.006-2.3c2.467-1.727,3.539,0.289,2.307,2.386c-1.234,2.096-1.356,2.343-2.098,3.823
		c-0.739,1.479,0.248,0.863,1.975-0.123c1.728-0.987,3.575-2.097,5.674-2.836c2.097-0.741,4.687-1.481,4.687-1.481
		s-0.615-1.232-0.369-2.713c0.246-1.479,0.986-2.096,0.986-2.096s-0.617-1.481-0.494-2.221
		C415.737,255.233,415.244,255.11,414.875,254.617z M406.189,259.153c-0.842,0-1.525-0.683-1.525-1.525
		c0-0.843,0.685-1.527,1.525-1.527c0.843,0,1.526,0.684,1.526,1.527C407.717,258.47,407.032,259.153,406.189,259.153z
		 M410.005,262.76c-0.843,0-1.524-0.684-1.524-1.527c0-0.841,0.683-1.525,1.524-1.525s1.526,0.684,1.526,1.525
		C411.531,262.077,410.847,262.76,410.005,262.76z M410.99,256.992c-0.844,0-1.526-0.684-1.526-1.527
		c0-0.841,0.684-1.525,1.526-1.525c0.842,0,1.524,0.684,1.524,1.525C412.516,256.308,411.832,256.992,410.99,256.992z"/>
	<circle fill="#5281A5" cx="381.049" cy="214.498" r="1.846"/>
	<circle fill="#5281A5" cx="377.475" cy="221.18" r="1.846"/>
	<path fill="#5281A5" d="M374.021,225.646c-1.021,0-1.849,0.827-1.849,1.846c0,1.02,0.826,1.845,1.849,1.845
		c1.018,0,1.846-0.826,1.846-1.845C375.867,226.474,375.039,225.646,374.021,225.646z"/>
	<path fill="#5281A5" d="M356.699,194.844c-1.379,1.11-6.341,6.04-10.277,9.172c-3.937,3.133-5.544,10.191-1.955,16.384
		c3.588,6.193,5.153,6.493,3.989,2.86c-1.166-3.632-0.36-7.362,3.767-9.487c4.125-2.125,3.195-1.693,6.785-2.577
		c1.073-0.265,2.857,0.963,2.935,2.054c0.255,3.688,0.381,2.67-0.382,7.248c-0.765,4.578-4.069,6.485-7.885,6.485
		c-3.814,0-3.051,1.399,3.942,2.925c6.993,1.525,13.224-2.162,15.003-6.867c1.781-4.704,4.959-10.935,5.596-12.588
		c0.637-1.653,6.612-1.78,9.281-1.398c2.672,0.381-0.381-4.195-4.449-5.848c-3.801-1.545-7.602-1.646-9.951-0.306
		c-8.387,4.783-8.198-0.657-7.559-6.002c0.31-2.586-0.95-5.921-3.414-8.869c-2.816-3.37-8.107-4.877-6.928-2.451
		C356.375,188.005,358.08,193.734,356.699,194.844z"/>
	<path fill="#5281A5" d="M352.842,194.854c0.969-0.312,1.506-1.351,1.195-2.322c-0.313-0.971-1.354-1.506-2.324-1.194
		c-0.971,0.31-1.504,1.35-1.193,2.321C350.83,194.63,351.872,195.166,352.842,194.854z"/>
	<circle fill="#5281A5" cx="347.29" cy="197.672" r="1.846"/>
	<circle fill="#5281A5" cx="342.468" cy="202.775" r="1.847"/>
	<circle fill="#CA982B" cx="358.205" cy="219.196" r="1.754"/>
	<circle fill="#CA982B" cx="353.107" cy="223.486" r="1.755"/>
	<circle fill="#CA982B" cx="353.455" cy="216.557" r="1.755"/>
	<circle fill="#5281A5" cx="370.124" cy="199.942" r="1.846"/>
	<circle fill="#5281A5" cx="373.586" cy="194.942" r="1.847"/>
	<circle fill="#5281A5" cx="377.355" cy="190.558" r="1.847"/>
	<path fill="#5281A5" d="M314.15,192.993c-4.195,3.052-7.48,12.919-5.343,13.224c0.892,0.127,2.671-1.399,4.705-3.941
		c2.034-2.543,4.832-9.283,5.213-10.809C319.109,189.942,318.346,189.942,314.15,192.993z"/>
	<path fill="#6F844C" d="M337.282,205.812c-3.772,1.45-7.516-2.32-14.95-3.744c-7.435-1.423-11.571,9.048-11.571,9.048
		s3.079,4.243,3.393,5.533c0.312,1.29,0.686,1.439,0.995,0.437c0.309-1.002,3.164-1.992,3.164-1.992s0.357-1.892,1.104-3.889
		c0.745-1.997,2.204-3.063,6.226-2.08c4.021,0.982,10.875-0.936,12.724-2.11C340.209,205.843,341.053,204.361,337.282,205.812z"/>
	<path fill="#6F844C" d="M335.63,305.04c-4.833-4.704-9.917-4.831-9.917-4.831s-1.018,0.763-1.145,1.78
		c-0.129,1.017-1.019,2.416-1.019,2.416s0,0,1.906,1.781c1.908,1.78,6.358,5.086,9.027,6.866c2.671,1.781,4.069,3.814-1.652,0.381
		c-5.722-3.432-9.663-8.137-10.3-6.992c-0.635,1.143-2.669,2.923-2.669,2.923s2.288,7.248,5.086,9.027
		c2.797,1.781,6.993,1.4,10.808,0.763c3.815-0.635,6.104,1.399,6.993,3.179c0.891,1.781,2.035,3.814,1.908-0.636
		C344.53,317.247,340.461,309.745,335.63,305.04z"/>
	<path fill="#6F844C" d="M520.312,322.326c0.396-0.193,0.551-0.647,0.354-1.018c-0.174-0.371-0.626-0.523-0.994-0.351
		c-3.496,1.626-7.557,1.222-11.261,0.572c-0.396-0.072-0.786,0.215-0.862,0.635c-0.049,0.399,0.241,0.791,0.637,0.863
		C512.174,323.704,516.576,324.218,520.312,322.326z"/>
	<path fill="#6F844C" d="M512.551,325.103c-0.354-0.236-0.828-0.143-1.064,0.189c-0.235,0.355-0.143,0.827,0.214,1.064
		c3.998,2.46,6.954,6.315,9.297,10.314c0.164,0.377,0.615,0.569,0.994,0.401c0.401-0.166,0.566-0.59,0.426-0.995
		C519.957,331.798,516.762,327.752,512.551,325.103z"/>
	<path fill="#6F844C" d="M299.862,183.324c3.306,2.163,4.196,4.959,4.323,6.994c0.098,1.565,0.892,4.966,1.413,7.354
		c0.779,3.585,1.896,2.438,2.444-0.073c0.521-2.38,1.289-5.697,1.385-7.235c0.127-2.035,1.019-4.831,4.323-6.994
		c3.307-2.162,4.832-4.323,4.705-6.484c-0.128-2.163-0.255-2.417-0.762-0.764c-0.511,1.653-2.163,3.941-4.451,3.56
		c-1.98-0.33-4.992,0.633-5.414,3.044c-0.586,3.349-0.861,1.622-1.48,0.406c-1.188-2.347-3.855-3.85-5.977-3.497
		c-2.289,0.381-3.942-1.907-4.45-3.56c-0.509-1.652-0.636-1.399-0.764,0.764C295.03,179,296.556,181.162,299.862,183.324z"/>
	<path fill="#5281A5" d="M274.691,228.292c4.966-0.07,9.617,0.9,13.784,10.055c4.169,9.155,3.392,14.814,4.408,22.521
		c0.825,6.264,1.543,13.463,6.358,16.8c4.072,2.824,11.112,2.914,15.233-0.023c4.724-3.369,5.437-10.51,6.257-16.731
		c1.015-7.706,0.237-13.365,4.405-22.52c4.168-9.156,8.818-10.125,13.784-10.055c4.965,0.071,0.698-2.886-8.558-5.53
		c-9.256-2.646-12.856-0.207-14.894,1.698c-1.412,1.322-3.665,4.76-5.104,7.792c-2.621,5.524-4.314,5.928-7.04,0.118
		c-1.435-3.072-3.747-6.612-5.183-7.956c-2.038-1.905-5.638-4.345-14.894-1.698C273.994,225.408,269.728,228.363,274.691,228.292z"
		/>
	<path fill="#5281A5" d="M317.311,287.381c3.814-0.763,7.884-3.941,9.791-6.994c1.907-3.051,2.543-8.137,3.052-16.784
		c0.955-16.218,11.594-23.884,16.667-25.455c2.066-0.639,4.229-0.723,6.729-0.611c5.723,0.254,1.259-2.743-4.195-4.069
		c-4.704-1.145-8.646-1.907-15.767,1.145c-8.604,3.687-8.202,15.882-9.122,24.544c-1.094,10.315-5.117,18.224-7.027,19.833
		c-6.464,5.443-16.007,4.377-21.263-0.046c-1.91-1.607-5.932-9.516-7.027-19.833c-0.92-8.661-0.518-20.856-9.122-24.544
		c-7.121-3.051-11.061-2.289-15.767-1.144c-5.454,1.327-9.917,4.323-4.195,4.069c2.501-0.112,4.663-0.028,6.729,0.611
		c5.072,1.571,15.712,9.237,16.667,25.455c0.509,8.646,1.143,13.733,3.051,16.785c1.907,3.051,5.976,6.23,9.791,6.993
		C304.393,288.953,309.587,288.926,317.311,287.381z"/>
	<path fill="#5281A5" d="M322.139,293.29c-0.635-2.417-3.688-4.705-3.688-4.705s-0.447,0.083-1.17,0.201
		c-8.949,1.46-10.66,1.435-19.206,0.221c-1.678-0.239-2.914-0.467-2.914-0.468c0,0-3.052,2.29-3.688,4.705
		c-0.635,2.416-0.762,7.121,0.891,10.299c2.747,5.285,3.452,6.362,7.883,5.34c2.183-0.504,4.72-1.38,6.356-2.657
		c0.884-0.688,0.656-0.402,1.717,0.349c1.568,1.114,3.038,1.892,5.044,2.355c4.336,1.001,6.488-2.657,7.883-5.34
		C322.902,300.411,322.775,295.706,322.139,293.29z"/>
	<circle fill="#5281A5" cx="307.287" cy="168.658" r="2.035"/>
	<path fill="#5281A5" d="M307.287,165.606c0.848,0,1.524-0.677,1.524-1.526c0-0.848-0.678-1.525-1.524-1.525
		c-0.848,0-1.526,0.678-1.526,1.525C305.761,164.929,306.439,165.606,307.287,165.606z"/>
	<path fill="#5281A5" d="M318.021,218.431c-0.097,1.022,0.646,1.915,1.668,2.01c1.021,0.095,1.913-0.645,2.01-1.667
		c0.096-1.019-0.646-1.914-1.667-2.009C319.01,216.669,318.117,217.411,318.021,218.431z"/>
	<path fill="#5281A5" d="M325.195,216.628c-0.097,1.021,0.646,1.916,1.667,2.011c1.021,0.095,1.915-0.648,2.009-1.668
		c0.096-1.021-0.646-1.915-1.666-2.009C326.184,214.867,325.289,215.607,325.195,216.628z"/>
	<path fill="#5281A5" d="M333.213,219.025c-0.095,1.02,0.646,1.914,1.667,2.009c1.022,0.096,1.913-0.646,2.009-1.666
		c0.097-1.022-0.645-1.916-1.666-2.011S333.309,218.003,333.213,219.025z"/>
	<path fill="#6F844C" d="M442.947,272.354c0.623,0.385,1.354,0.781,2.146,1.15c-1.6,4.222-10.123,17.672-16.881,26.319
		c0.565,0.184,1.212,0.45,1.806,0.825c6.906-8.9,15.338-22.094,16.967-26.386c3.875,1.319,8.633,1.435,11.59-3.326
		c4.135-6.65,1.233-12.926,0.385-13.481c-0.769-0.501-1.415-1.64-0.863,2.806c0.549,4.445-2.987,6.894-4.887,7.802
		c-1.9,0.907-5.201,1.447-8.28-1.45c-3.078-2.896-3.491-6.325-2.245-9.005c1.246-2.683,2.125-3.961,1.488-3.956
		c-0.635,0.005-4.453-0.213-5.67,5.393C437.281,264.649,439.111,269.973,442.947,272.354z"/>
	<path fill="#5281A5" d="M419.287,308.107c0.508,3.178,1.397,6.104,2.289,6.357c3.271,0.935,6.55,2.15,11.824,0.509
		c5.723-1.78,8.9-6.994,9.409-8.901c0.509-1.906-0.128-2.668-2.288-0.762c-0.195,0.172-0.403,0.341-0.615,0.507l-0.002,0.003
		c-3.142,2.094-7.745-0.783-11.482-3.355c-1.041-0.715-4.464-2.089-5.702-1.605C419.795,302.003,418.779,304.928,419.287,308.107z"
		/>
	<path fill="#6F844C" d="M461.462,280.566c-6.184,2.412-12.267,5.257-16.696,10.676c-3.146,3.847-5.341,8.043-7.619,12.208
		l2.113,0.388c2.084-3.832,4.14-7.678,7.008-11.212c4.229-5.214,10.061-7.875,15.972-10.177c0.377,0.788,0.777,1.515,1.17,2.134
		c2.417,3.814,7.758,5.595,13.352,4.323c5.595-1.271,5.34-5.086,5.34-5.721c0-0.637-1.271,0.254-3.94,1.525
		c-2.67,1.272-6.104,0.891-9.027-2.162c-2.925-3.051-2.415-6.357-1.524-8.265c0.889-1.907,3.306-5.466,7.755-4.958
		c4.451,0.508,3.306-0.127,2.798-0.89c-0.564-0.847-6.866-3.688-13.479,0.509C459.948,271.947,460.107,276.703,461.462,280.566z"/>
	<path fill="#5281A5" d="M341.298,277.411c-0.204-0.799-0.525-1.453-0.916-2.012c-2.775-3.247-8.359-2.482-9.383-2.566
		c0,0,0,1.399,0,3.561s-1.399,3.941-1.399,3.941c-1.018,1.145-0.254,0.764,1.019,0.636c1.271-0.127,3.178,0.382,5.341,2.417
		c2.161,2.034,3.306,3.051,3.306,3.051S342.951,283.896,341.298,277.411z"/>
	<path fill="#6F844C" d="M349.707,260.846c1.158-1.028,3.053-2.577,3.796-3.104c0.741-0.527,1.237-0.629,1.651,0.201
		c0.416,0.829,4.276,4.443,8.244,5.449c3.97,1.006,5.793,1.542,5.102-0.114c-0.69-1.657-4.292-5.742-8.391-6.479
		c-4.103-0.738-3.828-0.922-3.059-1.396c0.771-0.474,3.352-1.972,3.929-2.285c0.582-0.312,1.052,0.024,1.634,0.419
		c0.578,0.395,1.703,3.15,5.74,5.319c4.036,2.168,7.204,3.722,6.014,1.419c-1.187-2.301-1.209-4.716-4.688-6.712
		c-3.481-1.996-6.208-1.759-5.663-2.023c0.545-0.267,3.242-1.525,4.318-1.982c1.076-0.458,1.037-0.48,1.832-0.017
		c0.797,0.46,2.309,1.6,3.533,2.131c1.225,0.532,1.469-0.631,0.771-1.007c-0.692-0.375-3.053-1.743-3.053-1.743
		s-0.446-0.464,0.308-0.76c0.755-0.293,2.515-0.979,4.069-1.529c1.558-0.551,1.263-1.71-0.715-0.978
		c-1.979,0.729-2.695,0.988-3.944,1.491c-1.25,0.503-1.01-0.78-0.866-1.185c0.116-0.32,0.993-1.985,1.344-2.648
		c0.698-1.321-0.427-1.667-1.232-0.316c-0.338,0.565-0.952,1.654-1.171,2.408c-0.218,0.743-0.387,1.678-0.47,2.17
		c-0.033,0.214-0.141,0.389-0.283,0.463c-0.678,0.346-2.687,1.371-3.582,1.804c-1.094,0.524-1.496,0.718-1.939,0.942
		c-0.446,0.225-0.97-0.289-0.719-1.266c0.246-0.977,3.553-3.944,3.65-8.199c0.096-4.254-0.666-3.15-1.37-2.523
		c-0.706,0.627-5.267,3.64-4.942,7.875c0.325,4.234,1.267,5.214,1.267,5.214s-1.528,0.792-3.064,1.725
		c-1.536,0.932-2.68,1.764-2.756,1.708c-0.077-0.057,1.996-3.818,1.636-8.268c-0.359-4.448-1.595-6.868-1.648-7.051
		s-0.521-0.658-1.084,0.532c-0.564,1.188-4.109,6.212-2.764,10.677c1.346,4.463,2.462,5.017,2.462,5.017s-2.113,1.506-2.913,2.175
		c-0.796,0.667-2.646,2.354-3.166,2.896c-0.523,0.542-1.228,0.512-1.534-0.186c-0.308-0.698,0.841-5.496-0.102-8.966
		c-0.942-3.471-1.094-3.999-1.002-4.729c0.092-0.731-0.917-1.047-1.288-0.156c-0.373,0.891-3.837,4.365-2.3,9.002
		c1.533,4.636,3.21,6.506,3.672,6.906c0.459,0.399-0.719,1.776-1.901,3.253c-1.187,1.478-1.828,2.216-2.977,3.792
		c-1.148,1.578,0,1.904,1.309,0.159c1.309-1.744,3.371-4.377,4.367-5.484c0.995-1.108,1.589-1.417,1.81-0.672
		c0.216,0.745,3.44,3.549,8.349,3.724c4.908,0.177,6.592-0.248,4.193-1.901c-2.398-1.656-6.296-4.123-8.914-4.125
		C348.583,261.91,348.547,261.874,349.707,260.846z"/>
	<path fill="#5281A5" d="M375.079,253.818c-0.251,2.053,1.185,3.916,3.2,4.16c2.016,0.245,3.854-1.221,4.102-3.273
		c0.25-2.053-1.185-3.917-3.2-4.162C377.165,250.299,375.327,251.766,375.079,253.818z M379.518,253.165
		c0.893,0.108,1.539,0.825,1.445,1.599c-0.096,0.775-0.894,1.316-1.787,1.208c-0.891-0.108-1.538-0.825-1.441-1.6
		C377.827,253.598,378.627,253.057,379.518,253.165z"/>
	<path fill="#5281A5" d="M383.534,241.256c-1.432-1.494-3.78-1.562-5.245-0.157c-1.467,1.404-1.496,3.756-0.063,5.247
		c1.434,1.494,3.78,1.563,5.245,0.158C384.939,245.096,384.965,242.747,383.534,241.256z M382.486,244.536
		c-0.646,0.622-1.611,0.669-2.152,0.106c-0.539-0.563-0.453-1.523,0.195-2.145c0.649-0.623,1.612-0.671,2.153-0.107
		C383.223,242.954,383.135,243.915,382.486,244.536z"/>
	<path fill="#5281A5" d="M368.369,237.614c0.038,2.031,1.746,3.646,3.812,3.604c2.069-0.04,3.714-1.72,3.677-3.749
		c-0.041-2.033-1.748-3.646-3.815-3.605C369.973,233.904,368.332,235.583,368.369,237.614z M373.742,236.858
		c0.02,0.899-0.602,1.639-1.382,1.656c-0.78,0.014-1.427-0.701-1.444-1.599c-0.016-0.9,0.6-1.64,1.381-1.654
		C373.08,235.244,373.726,235.96,373.742,236.858z"/>
	<ellipse fill="#CA982B" cx="306.807" cy="221.6" rx="5.008" ry="10.413"/>
	<path fill="#6F844C" d="M152.871,290.753c-7.061,0.505-3.408,2.708,0,3.539c3.409,0.832,10.978,3.811,11.3,0.147
		C164.45,291.271,159.932,290.247,152.871,290.753z"/>
	<path fill="#6F844C" d="M182.81,281.648c-0.671,3.443-3.296,11.143,0.378,11.294c3.178,0.131,3.991-4.43,3.158-11.458
		C185.512,274.455,183.481,278.205,182.81,281.648z"/>
	<path fill="#6F844C" d="M448.048,295.329c0.322,3.664,7.893,0.685,11.3-0.146c3.408-0.831,7.062-3.033,0-3.539
		C452.287,291.138,447.77,292.162,448.048,295.329z"/>
	<path fill="#6F844C" d="M425.873,281.535c-0.832,7.029-0.021,11.59,3.157,11.458c3.676-0.152,1.051-7.851,0.378-11.294
		C428.738,278.256,426.707,274.505,425.873,281.535z"/>
</g>
</svg>
